<svg width="1600" height="480" viewBox="0 0 1600 480" fill="none" xmlns="http://www.w3.org/2000/svg">
<mask id="mask0_292_144" style="mask-type:alpha" maskUnits="userSpaceOnUse" x="0" y="0" width="1600" height="480">
<rect width="1600" height="480" fill="#C4C4C4"/>
</mask>
<g mask="url(#mask0_292_144)">
<path d="M0 640H25M0 640V680M0 640V600M25 640V680M25 640V600M25 640H50M25 680H0M25 680V720M25 680H50M0 680V720M25 0H0V40M25 0V40M25 0H50M25 40H0M25 40V80M25 40H50M0 40V80M400 640H425M400 640V680M400 640V600M400 640H375M425 640V680M425 640V600M425 640H450M425 680H400M425 680V720M425 680H450M400 680V720M400 680H375M400 0H425M400 0V40M400 0H375M425 0V40M425 0H450M425 40H400M425 40V80M425 40H450M400 40V80M400 40H375M0 960H25M0 960V1000M0 960V920M25 960V1000M25 960V920M25 960H50M25 1000H0M25 1000V1040M25 1000H50M0 1000V1040M0 320H25M0 320V360M0 320V280M25 320V360M25 320V280M25 320H50M25 360H0M25 360V400M25 360H50M0 360V400M400 960H425M400 960V1000M400 960V920M400 960H375M425 960V1000M425 960V920M425 960H450M425 1000H400M425 1000V1040M425 1000H450M400 1000V1040M400 1000H375M400 320H425M400 320V360M400 320V280M400 320H375M425 320V360M425 320V280M425 320H450M425 360H400M425 360V400M425 360H450M400 360V400M400 360H375M0 800H25M0 800V840M0 800V760M25 800V840M25 800V760M25 800H50M25 840H0M25 840V880M25 840H50M0 840V880M0 160H25M0 160V200M0 160V120M25 160V200M25 160V120M25 160H50M25 200H0M25 200V240M25 200H50M0 200V240M400 800H425M400 800V840M400 800V760M400 800H375M425 800V840M425 800V760M425 800H450M425 840H400M425 840V880M425 840H450M400 840V880M400 840H375M400 160H425M400 160V200M400 160V120M400 160H375M425 160V200M425 160V120M425 160H450M425 200H400M425 200V240M425 200H450M400 200V240M400 200H375M0 1120H25M0 1120V1160M0 1120V1080M25 1120V1160M25 1120V1080M25 1120H50M25 1160H0M25 1160V1200M25 1160H50M0 1160V1200M0 480H25M0 480V520M0 480V440M25 480V520M25 480V440M25 480H50M25 520H0M25 520V560M25 520H50M0 520V560M400 1120H425M400 1120V1160M400 1120V1080M400 1120H375M425 1120V1160M425 1120V1080M425 1120H450M425 1160H400M425 1160V1200M425 1160H450M400 1160V1200M400 1160H375M400 480H425M400 480V520M400 480V440M400 480H375M425 480V520M425 480V440M425 480H450M425 520H400M425 520V560M425 520H450M400 520V560M400 520H375M25 720H0M25 720V760M25 720H50M0 720V760M25 80H0M25 80V120M25 80H50M0 80V120M425 720H400M425 720V760M425 720H450M400 720V760M400 720H375M425 80H400M425 80V120M425 80H450M400 80V120M400 80H375M25 1040H0M25 1040V1080M25 1040H50M0 1040V1080M25 400H0M25 400V440M25 400H50M0 400V440M425 1040H400M425 1040V1080M425 1040H450M400 1040V1080M400 1040H375M425 400H400M425 400V440M425 400H450M400 400V440M400 400H375M25 880H0M25 880V920M25 880H50M0 880V920M25 240H0M25 240V280M25 240H50M0 240V280M425 880H400M425 880V920M425 880H450M400 880V920M400 880H375M425 240H400M425 240V280M425 240H450M400 240V280M400 240H375M25 1200H0M25 1200V1240M25 1200H50M0 1200V1240M25 560H0M25 560V600M25 560H50M0 560V600M425 1200H400M425 1200V1240M425 1200H450M400 1200V1240M400 1200H375M425 560H400M425 560V600M425 560H450M400 560V600M400 560H375M25 760H0M25 760H50M25 120H0M25 120H50M425 760H400M425 760H450M400 760H375M425 120H400M425 120H450M400 120H375M25 1080H0M25 1080H50M25 440H0M25 440H50M425 1080H400M425 1080H450M400 1080H375M425 440H400M425 440H450M400 440H375M25 920H0M25 920H50M25 280H0M25 280H50M425 920H400M425 920H450M400 920H375M425 280H400M425 280H450M400 280H375M25 1240H0M25 1240V1280M25 1240H50M0 1240V1280H25M25 600H0M25 600H50M425 1240H400M425 1240V1280M425 1240H450M400 1240V1280M400 1240H375M425 600H400M425 600H450M400 600H375M25 1280H50M425 1280H400M425 1280H450M400 1280H375M200 640H225M200 640V680M200 640V600M200 640H175M225 640V680M225 640V600M225 640H250M225 680H200M225 680V720M225 680H250M200 680V720M200 680H175M200 0H225M200 0V40M200 0H175M225 0V40M225 0H250M225 40H200M225 40V80M225 40H250M200 40V80M200 40H175M600 640H625M600 640V680M600 640V600M600 640H575M625 640V680M625 640V600M625 640H650M625 680H600M625 680V720M625 680H650M600 680V720M600 680H575M600 0H625M600 0V40M600 0H575M625 0V40M625 0H650M625 40H600M625 40V80M625 40H650M600 40V80M600 40H575M200 960H225M200 960V1000M200 960V920M200 960H175M225 960V1000M225 960V920M225 960H250M225 1000H200M225 1000V1040M225 1000H250M200 1000V1040M200 1000H175M200 320H225M200 320V360M200 320V280M200 320H175M225 320V360M225 320V280M225 320H250M225 360H200M225 360V400M225 360H250M200 360V400M200 360H175M600 960H625M600 960V1000M600 960V920M600 960H575M625 960V1000M625 960V920M625 960H650M625 1000H600M625 1000V1040M625 1000H650M600 1000V1040M600 1000H575M600 320H625M600 320V360M600 320V280M600 320H575M625 320V360M625 320V280M625 320H650M625 360H600M625 360V400M625 360H650M600 360V400M600 360H575M200 800H225M200 800V840M200 800V760M200 800H175M225 800V840M225 800V760M225 800H250M225 840H200M225 840V880M225 840H250M200 840V880M200 840H175M200 160H225M200 160V200M200 160V120M200 160H175M225 160V200M225 160V120M225 160H250M225 200H200M225 200V240M225 200H250M200 200V240M200 200H175M600 800H625M600 800V840M600 800V760M600 800H575M625 800V840M625 800V760M625 800H650M625 840H600M625 840V880M625 840H650M600 840V880M600 840H575M600 160H625M600 160V200M600 160V120M600 160H575M625 160V200M625 160V120M625 160H650M625 200H600M625 200V240M625 200H650M600 200V240M600 200H575M200 1120H225M200 1120V1160M200 1120V1080M200 1120H175M225 1120V1160M225 1120V1080M225 1120H250M225 1160H200M225 1160V1200M225 1160H250M200 1160V1200M200 1160H175M200 480H225M200 480V520M200 480V440M200 480H175M225 480V520M225 480V440M225 480H250M225 520H200M225 520V560M225 520H250M200 520V560M200 520H175M600 1120H625M600 1120V1160M600 1120V1080M600 1120H575M625 1120V1160M625 1120V1080M625 1120H650M625 1160H600M625 1160V1200M625 1160H650M600 1160V1200M600 1160H575M600 480H625M600 480V520M600 480V440M600 480H575M625 480V520M625 480V440M625 480H650M625 520H600M625 520V560M625 520H650M600 520V560M600 520H575M225 720H200M225 720V760M225 720H250M200 720V760M200 720H175M225 80H200M225 80V120M225 80H250M200 80V120M200 80H175M625 720H600M625 720V760M625 720H650M600 720V760M600 720H575M625 80H600M625 80V120M625 80H650M600 80V120M600 80H575M225 1040H200M225 1040V1080M225 1040H250M200 1040V1080M200 1040H175M225 400H200M225 400V440M225 400H250M200 400V440M200 400H175M625 1040H600M625 1040V1080M625 1040H650M600 1040V1080M600 1040H575M625 400H600M625 400V440M625 400H650M600 400V440M600 400H575M225 880H200M225 880V920M225 880H250M200 880V920M200 880H175M225 240H200M225 240V280M225 240H250M200 240V280M200 240H175M625 880H600M625 880V920M625 880H650M600 880V920M600 880H575M625 240H600M625 240V280M625 240H650M600 240V280M600 240H575M225 1200H200M225 1200V1240M225 1200H250M200 1200V1240M200 1200H175M225 560H200M225 560V600M225 560H250M200 560V600M200 560H175M625 1200H600M625 1200V1240M625 1200H650M600 1200V1240M600 1200H575M625 560H600M625 560V600M625 560H650M600 560V600M600 560H575M225 760H200M225 760H250M200 760H175M225 120H200M225 120H250M200 120H175M625 760H600M625 760H650M600 760H575M625 120H600M625 120H650M600 120H575M225 1080H200M225 1080H250M200 1080H175M225 440H200M225 440H250M200 440H175M625 1080H600M625 1080H650M600 1080H575M625 440H600M625 440H650M600 440H575M225 920H200M225 920H250M200 920H175M225 280H200M225 280H250M200 280H175M625 920H600M625 920H650M600 920H575M625 280H600M625 280H650M600 280H575M225 1240H200M225 1240V1280M225 1240H250M200 1240V1280M200 1240H175M225 600H200M225 600H250M200 600H175M625 1240H600M625 1240V1280M625 1240H650M600 1240V1280M600 1240H575M625 600H600M625 600H650M600 600H575M225 1280H200M225 1280H250M200 1280H175M625 1280H600M625 1280H650M600 1280H575M100 640H125M100 640V680M100 640V600M100 640H75M125 640V680M125 640V600M125 640H150M125 680H100M125 680V720M125 680H150M100 680V720M100 680H75M100 0H125M100 0V40M100 0H75M125 0V40M125 0H150M125 40H100M125 40V80M125 40H150M100 40V80M100 40H75M500 640H525M500 640V680M500 640V600M500 640H475M525 640V680M525 640V600M525 640H550M525 680H500M525 680V720M525 680H550M500 680V720M500 680H475M500 0H525M500 0V40M500 0H475M525 0V40M525 0H550M525 40H500M525 40V80M525 40H550M500 40V80M500 40H475M100 960H125M100 960V1000M100 960V920M100 960H75M125 960V1000M125 960V920M125 960H150M125 1000H100M125 1000V1040M125 1000H150M100 1000V1040M100 1000H75M100 320H125M100 320V360M100 320V280M100 320H75M125 320V360M125 320V280M125 320H150M125 360H100M125 360V400M125 360H150M100 360V400M100 360H75M500 960H525M500 960V1000M500 960V920M500 960H475M525 960V1000M525 960V920M525 960H550M525 1000H500M525 1000V1040M525 1000H550M500 1000V1040M500 1000H475M500 320H525M500 320V360M500 320V280M500 320H475M525 320V360M525 320V280M525 320H550M525 360H500M525 360V400M525 360H550M500 360V400M500 360H475M100 800H125M100 800V840M100 800V760M100 800H75M125 800V840M125 800V760M125 800H150M125 840H100M125 840V880M125 840H150M100 840V880M100 840H75M100 160H125M100 160V200M100 160V120M100 160H75M125 160V200M125 160V120M125 160H150M125 200H100M125 200V240M125 200H150M100 200V240M100 200H75M500 800H525M500 800V840M500 800V760M500 800H475M525 800V840M525 800V760M525 800H550M525 840H500M525 840V880M525 840H550M500 840V880M500 840H475M500 160H525M500 160V200M500 160V120M500 160H475M525 160V200M525 160V120M525 160H550M525 200H500M525 200V240M525 200H550M500 200V240M500 200H475M100 1120H125M100 1120V1160M100 1120V1080M100 1120H75M125 1120V1160M125 1120V1080M125 1120H150M125 1160H100M125 1160V1200M125 1160H150M100 1160V1200M100 1160H75M100 480H125M100 480V520M100 480V440M100 480H75M125 480V520M125 480V440M125 480H150M125 520H100M125 520V560M125 520H150M100 520V560M100 520H75M500 1120H525M500 1120V1160M500 1120V1080M500 1120H475M525 1120V1160M525 1120V1080M525 1120H550M525 1160H500M525 1160V1200M525 1160H550M500 1160V1200M500 1160H475M500 480H525M500 480V520M500 480V440M500 480H475M525 480V520M525 480V440M525 480H550M525 520H500M525 520V560M525 520H550M500 520V560M500 520H475M125 720H100M125 720V760M125 720H150M100 720V760M100 720H75M125 80H100M125 80V120M125 80H150M100 80V120M100 80H75M525 720H500M525 720V760M525 720H550M500 720V760M500 720H475M525 80H500M525 80V120M525 80H550M500 80V120M500 80H475M125 1040H100M125 1040V1080M125 1040H150M100 1040V1080M100 1040H75M125 400H100M125 400V440M125 400H150M100 400V440M100 400H75M525 1040H500M525 1040V1080M525 1040H550M500 1040V1080M500 1040H475M525 400H500M525 400V440M525 400H550M500 400V440M500 400H475M125 880H100M125 880V920M125 880H150M100 880V920M100 880H75M125 240H100M125 240V280M125 240H150M100 240V280M100 240H75M525 880H500M525 880V920M525 880H550M500 880V920M500 880H475M525 240H500M525 240V280M525 240H550M500 240V280M500 240H475M125 1200H100M125 1200V1240M125 1200H150M100 1200V1240M100 1200H75M125 560H100M125 560V600M125 560H150M100 560V600M100 560H75M525 1200H500M525 1200V1240M525 1200H550M500 1200V1240M500 1200H475M525 560H500M525 560V600M525 560H550M500 560V600M500 560H475M125 760H100M125 760H150M100 760H75M125 120H100M125 120H150M100 120H75M525 760H500M525 760H550M500 760H475M525 120H500M525 120H550M500 120H475M125 1080H100M125 1080H150M100 1080H75M125 440H100M125 440H150M100 440H75M525 1080H500M525 1080H550M500 1080H475M525 440H500M525 440H550M500 440H475M125 920H100M125 920H150M100 920H75M125 280H100M125 280H150M100 280H75M525 920H500M525 920H550M500 920H475M525 280H500M525 280H550M500 280H475M125 1240H100M125 1240V1280M125 1240H150M100 1240V1280M100 1240H75M125 600H100M125 600H150M100 600H75M525 1240H500M525 1240V1280M525 1240H550M500 1240V1280M500 1240H475M525 600H500M525 600H550M500 600H475M125 1280H100M125 1280H150M100 1280H75M525 1280H500M525 1280H550M500 1280H475M300 640H325M300 640V680M300 640V600M300 640H275M325 640V680M325 640V600M325 640H350M325 680H300M325 680V720M325 680H350M300 680V720M300 680H275M300 0H325M300 0V40M300 0H275M325 0V40M325 0H350M325 40H300M325 40V80M325 40H350M300 40V80M300 40H275M700 640H725M700 640V680M700 640V600M700 640H675M725 640V680M725 640V600M725 640H750M725 680H700M725 680V720M725 680H750M700 680V720M700 680H675M700 0H725M700 0V40M700 0H675M725 0V40M725 0H750M725 40H700M725 40V80M725 40H750M700 40V80M700 40H675M300 960H325M300 960V1000M300 960V920M300 960H275M325 960V1000M325 960V920M325 960H350M325 1000H300M325 1000V1040M325 1000H350M300 1000V1040M300 1000H275M300 320H325M300 320V360M300 320V280M300 320H275M325 320V360M325 320V280M325 320H350M325 360H300M325 360V400M325 360H350M300 360V400M300 360H275M700 960H725M700 960V1000M700 960V920M700 960H675M725 960V1000M725 960V920M725 960H750M725 1000H700M725 1000V1040M725 1000H750M700 1000V1040M700 1000H675M700 320H725M700 320V360M700 320V280M700 320H675M725 320V360M725 320V280M725 320H750M725 360H700M725 360V400M725 360H750M700 360V400M700 360H675M300 800H325M300 800V840M300 800V760M300 800H275M325 800V840M325 800V760M325 800H350M325 840H300M325 840V880M325 840H350M300 840V880M300 840H275M300 160H325M300 160V200M300 160V120M300 160H275M325 160V200M325 160V120M325 160H350M325 200H300M325 200V240M325 200H350M300 200V240M300 200H275M700 800H725M700 800V840M700 800V760M700 800H675M725 800V840M725 800V760M725 800H750M725 840H700M725 840V880M725 840H750M700 840V880M700 840H675M700 160H725M700 160V200M700 160V120M700 160H675M725 160V200M725 160V120M725 160H750M725 200H700M725 200V240M725 200H750M700 200V240M700 200H675M300 1120H325M300 1120V1160M300 1120V1080M300 1120H275M325 1120V1160M325 1120V1080M325 1120H350M325 1160H300M325 1160V1200M325 1160H350M300 1160V1200M300 1160H275M300 480H325M300 480V520M300 480V440M300 480H275M325 480V520M325 480V440M325 480H350M325 520H300M325 520V560M325 520H350M300 520V560M300 520H275M700 1120H725M700 1120V1160M700 1120V1080M700 1120H675M725 1120V1160M725 1120V1080M725 1120H750M725 1160H700M725 1160V1200M725 1160H750M700 1160V1200M700 1160H675M700 480H725M700 480V520M700 480V440M700 480H675M725 480V520M725 480V440M725 480H750M725 520H700M725 520V560M725 520H750M700 520V560M700 520H675M325 720H300M325 720V760M325 720H350M300 720V760M300 720H275M325 80H300M325 80V120M325 80H350M300 80V120M300 80H275M725 720H700M725 720V760M725 720H750M700 720V760M700 720H675M725 80H700M725 80V120M725 80H750M700 80V120M700 80H675M325 1040H300M325 1040V1080M325 1040H350M300 1040V1080M300 1040H275M325 400H300M325 400V440M325 400H350M300 400V440M300 400H275M725 1040H700M725 1040V1080M725 1040H750M700 1040V1080M700 1040H675M725 400H700M725 400V440M725 400H750M700 400V440M700 400H675M325 880H300M325 880V920M325 880H350M300 880V920M300 880H275M325 240H300M325 240V280M325 240H350M300 240V280M300 240H275M725 880H700M725 880V920M725 880H750M700 880V920M700 880H675M725 240H700M725 240V280M725 240H750M700 240V280M700 240H675M325 1200H300M325 1200V1240M325 1200H350M300 1200V1240M300 1200H275M325 560H300M325 560V600M325 560H350M300 560V600M300 560H275M725 1200H700M725 1200V1240M725 1200H750M700 1200V1240M700 1200H675M725 560H700M725 560V600M725 560H750M700 560V600M700 560H675M325 760H300M325 760H350M300 760H275M325 120H300M325 120H350M300 120H275M725 760H700M725 760H750M700 760H675M725 120H700M725 120H750M700 120H675M325 1080H300M325 1080H350M300 1080H275M325 440H300M325 440H350M300 440H275M725 1080H700M725 1080H750M700 1080H675M725 440H700M725 440H750M700 440H675M325 920H300M325 920H350M300 920H275M325 280H300M325 280H350M300 280H275M725 920H700M725 920H750M700 920H675M725 280H700M725 280H750M700 280H675M325 1240H300M325 1240V1280M325 1240H350M300 1240V1280M300 1240H275M325 600H300M325 600H350M300 600H275M725 1240H700M725 1240V1280M725 1240H750M700 1240V1280M700 1240H675M725 600H700M725 600H750M700 600H675M325 1280H300M325 1280H350M300 1280H275M725 1280H700M725 1280H750M700 1280H675M50 640V680M50 640V600M50 640H75M50 680V720M50 680H75M50 0V40M50 0H75M50 40V80M50 40H75M450 640V680M450 640V600M450 640H475M450 680V720M450 680H475M450 0V40M450 0H475M450 40V80M450 40H475M50 960V1000M50 960V920M50 960H75M50 1000V1040M50 1000H75M50 320V360M50 320V280M50 320H75M50 360V400M50 360H75M450 960V1000M450 960V920M450 960H475M450 1000V1040M450 1000H475M450 320V360M450 320V280M450 320H475M450 360V400M450 360H475M50 800V840M50 800V760M50 800H75M50 840V880M50 840H75M50 160V200M50 160V120M50 160H75M50 200V240M50 200H75M450 800V840M450 800V760M450 800H475M450 840V880M450 840H475M450 160V200M450 160V120M450 160H475M450 200V240M450 200H475M50 1120V1160M50 1120V1080M50 1120H75M50 1160V1200M50 1160H75M50 480V520M50 480V440M50 480H75M50 520V560M50 520H75M450 1120V1160M450 1120V1080M450 1120H475M450 1160V1200M450 1160H475M450 480V520M450 480V440M450 480H475M450 520V560M450 520H475M50 720V760M50 720H75M50 80V120M50 80H75M450 720V760M450 720H475M450 80V120M450 80H475M50 1040V1080M50 1040H75M50 400V440M50 400H75M450 1040V1080M450 1040H475M450 400V440M450 400H475M50 880V920M50 880H75M50 240V280M50 240H75M450 880V920M450 880H475M450 240V280M450 240H475M50 1200V1240M50 1200H75M50 560V600M50 560H75M450 1200V1240M450 1200H475M450 560V600M450 560H475M50 760H75M50 120H75M450 760H475M450 120H475M50 1080H75M50 440H75M450 1080H475M450 440H475M50 920H75M50 280H75M450 920H475M450 280H475M50 1240V1280M50 1240H75M50 600H75M450 1240V1280M450 1240H475M450 600H475M50 1280H75M450 1280H475M250 640V680M250 640V600M250 640H275M250 680V720M250 680H275M250 0V40M250 0H275M250 40V80M250 40H275M650 640V680M650 640V600M650 640H675M650 680V720M650 680H675M650 0V40M650 0H675M650 40V80M650 40H675M250 960V1000M250 960V920M250 960H275M250 1000V1040M250 1000H275M250 320V360M250 320V280M250 320H275M250 360V400M250 360H275M650 960V1000M650 960V920M650 960H675M650 1000V1040M650 1000H675M650 320V360M650 320V280M650 320H675M650 360V400M650 360H675M250 800V840M250 800V760M250 800H275M250 840V880M250 840H275M250 160V200M250 160V120M250 160H275M250 200V240M250 200H275M650 800V840M650 800V760M650 800H675M650 840V880M650 840H675M650 160V200M650 160V120M650 160H675M650 200V240M650 200H675M250 1120V1160M250 1120V1080M250 1120H275M250 1160V1200M250 1160H275M250 480V520M250 480V440M250 480H275M250 520V560M250 520H275M650 1120V1160M650 1120V1080M650 1120H675M650 1160V1200M650 1160H675M650 480V520M650 480V440M650 480H675M650 520V560M650 520H675M250 720V760M250 720H275M250 80V120M250 80H275M650 720V760M650 720H675M650 80V120M650 80H675M250 1040V1080M250 1040H275M250 400V440M250 400H275M650 1040V1080M650 1040H675M650 400V440M650 400H675M250 880V920M250 880H275M250 240V280M250 240H275M650 880V920M650 880H675M650 240V280M650 240H675M250 1200V1240M250 1200H275M250 560V600M250 560H275M650 1200V1240M650 1200H675M650 560V600M650 560H675M250 760H275M250 120H275M650 760H675M650 120H675M250 1080H275M250 440H275M650 1080H675M650 440H675M250 920H275M250 280H275M650 920H675M650 280H675M250 1240V1280M250 1240H275M250 600H275M650 1240V1280M650 1240H675M650 600H675M250 1280H275M650 1280H675M150 640V680M150 640V600M150 640H175M150 680V720M150 680H175M150 0V40M150 0H175M150 40V80M150 40H175M550 640V680M550 640V600M550 640H575M550 680V720M550 680H575M550 0V40M550 0H575M550 40V80M550 40H575M150 960V1000M150 960V920M150 960H175M150 1000V1040M150 1000H175M150 320V360M150 320V280M150 320H175M150 360V400M150 360H175M550 960V1000M550 960V920M550 960H575M550 1000V1040M550 1000H575M550 320V360M550 320V280M550 320H575M550 360V400M550 360H575M150 800V840M150 800V760M150 800H175M150 840V880M150 840H175M150 160V200M150 160V120M150 160H175M150 200V240M150 200H175M550 800V840M550 800V760M550 800H575M550 840V880M550 840H575M550 160V200M550 160V120M550 160H575M550 200V240M550 200H575M150 1120V1160M150 1120V1080M150 1120H175M150 1160V1200M150 1160H175M150 480V520M150 480V440M150 480H175M150 520V560M150 520H175M550 1120V1160M550 1120V1080M550 1120H575M550 1160V1200M550 1160H575M550 480V520M550 480V440M550 480H575M550 520V560M550 520H575M150 720V760M150 720H175M150 80V120M150 80H175M550 720V760M550 720H575M550 80V120M550 80H575M150 1040V1080M150 1040H175M150 400V440M150 400H175M550 1040V1080M550 1040H575M550 400V440M550 400H575M150 880V920M150 880H175M150 240V280M150 240H175M550 880V920M550 880H575M550 240V280M550 240H575M150 1200V1240M150 1200H175M150 560V600M150 560H175M550 1200V1240M550 1200H575M550 560V600M550 560H575M150 760H175M150 120H175M550 760H575M550 120H575M150 1080H175M150 440H175M550 1080H575M550 440H575M150 920H175M150 280H175M550 920H575M550 280H575M150 1240V1280M150 1240H175M150 600H175M550 1240V1280M550 1240H575M550 600H575M150 1280H175M550 1280H575M350 640V680M350 640V600M350 640H375M350 680V720M350 680H375M350 0V40M350 0H375M350 40V80M350 40H375M750 640V680M750 640V600M750 640H775M750 680V720M750 680H775M750 0V40M750 0H775M750 40V80M750 40H775M350 960V1000M350 960V920M350 960H375M350 1000V1040M350 1000H375M350 320V360M350 320V280M350 320H375M350 360V400M350 360H375M750 960V1000M750 960V920M750 960H775M750 1000V1040M750 1000H775M750 320V360M750 320V280M750 320H775M750 360V400M750 360H775M350 800V840M350 800V760M350 800H375M350 840V880M350 840H375M350 160V200M350 160V120M350 160H375M350 200V240M350 200H375M750 800V840M750 800V760M750 800H775M750 840V880M750 840H775M750 160V200M750 160V120M750 160H775M750 200V240M750 200H775M350 1120V1160M350 1120V1080M350 1120H375M350 1160V1200M350 1160H375M350 480V520M350 480V440M350 480H375M350 520V560M350 520H375M750 1120V1160M750 1120V1080M750 1120H775M750 1160V1200M750 1160H775M750 480V520M750 480V440M750 480H775M750 520V560M750 520H775M350 720V760M350 720H375M350 80V120M350 80H375M750 720V760M750 720H775M750 80V120M750 80H775M350 1040V1080M350 1040H375M350 400V440M350 400H375M750 1040V1080M750 1040H775M750 400V440M750 400H775M350 880V920M350 880H375M350 240V280M350 240H375M750 880V920M750 880H775M750 240V280M750 240H775M350 1200V1240M350 1200H375M350 560V600M350 560H375M750 1200V1240M750 1200H775M750 560V600M750 560H775M350 760H375M350 120H375M750 760H775M750 120H775M350 1080H375M350 440H375M750 1080H775M750 440H775M350 920H375M350 280H375M750 920H775M750 280H775M350 1240V1280M350 1240H375M350 600H375M750 1240V1280M750 1240H775M750 600H775M350 1280H375M750 1280H775M75 640V680M75 640V600M75 680V720M75 0V40M75 40V80M475 640V680M475 640V600M475 680V720M475 0V40M475 40V80M75 960V1000M75 960V920M75 1000V1040M75 320V360M75 320V280M75 360V400M475 960V1000M475 960V920M475 1000V1040M475 320V360M475 320V280M475 360V400M75 800V840M75 800V760M75 840V880M75 160V200M75 160V120M75 200V240M475 800V840M475 800V760M475 840V880M475 160V200M475 160V120M475 200V240M75 1120V1160M75 1120V1080M75 1160V1200M75 480V520M75 480V440M75 520V560M475 1120V1160M475 1120V1080M475 1160V1200M475 480V520M475 480V440M475 520V560M75 720V760M75 80V120M475 720V760M475 80V120M75 1040V1080M75 400V440M475 1040V1080M475 400V440M75 880V920M75 240V280M475 880V920M475 240V280M75 1200V1240M75 560V600M475 1200V1240M475 560V600M75 1240V1280M475 1240V1280M275 640V680M275 640V600M275 680V720M275 0V40M275 40V80M675 640V680M675 640V600M675 680V720M675 0V40M675 40V80M275 960V1000M275 960V920M275 1000V1040M275 320V360M275 320V280M275 360V400M675 960V1000M675 960V920M675 1000V1040M675 320V360M675 320V280M675 360V400M275 800V840M275 800V760M275 840V880M275 160V200M275 160V120M275 200V240M675 800V840M675 800V760M675 840V880M675 160V200M675 160V120M675 200V240M275 1120V1160M275 1120V1080M275 1160V1200M275 480V520M275 480V440M275 520V560M675 1120V1160M675 1120V1080M675 1160V1200M675 480V520M675 480V440M675 520V560M275 720V760M275 80V120M675 720V760M675 80V120M275 1040V1080M275 400V440M675 1040V1080M675 400V440M275 880V920M275 240V280M675 880V920M675 240V280M275 1200V1240M275 560V600M675 1200V1240M675 560V600M275 1240V1280M675 1240V1280M175 640V680M175 640V600M175 680V720M175 0V40M175 40V80M575 640V680M575 640V600M575 680V720M575 0V40M575 40V80M175 960V1000M175 960V920M175 1000V1040M175 320V360M175 320V280M175 360V400M575 960V1000M575 960V920M575 1000V1040M575 320V360M575 320V280M575 360V400M175 800V840M175 800V760M175 840V880M175 160V200M175 160V120M175 200V240M575 800V840M575 800V760M575 840V880M575 160V200M575 160V120M575 200V240M175 1120V1160M175 1120V1080M175 1160V1200M175 480V520M175 480V440M175 520V560M575 1120V1160M575 1120V1080M575 1160V1200M575 480V520M575 480V440M575 520V560M175 720V760M175 80V120M575 720V760M575 80V120M175 1040V1080M175 400V440M575 1040V1080M575 400V440M175 880V920M175 240V280M575 880V920M575 240V280M175 1200V1240M175 560V600M575 1200V1240M575 560V600M175 1240V1280M575 1240V1280M375 640V680M375 640V600M375 680V720M375 0V40M375 40V80M775 640V680M775 640V600M775 640H800M775 680V720M775 680H800M775 0V40M775 0H800M775 40V80M775 40H800M375 960V1000M375 960V920M375 1000V1040M375 320V360M375 320V280M375 360V400M775 960V1000M775 960V920M775 960H800M775 1000V1040M775 1000H800M775 320V360M775 320V280M775 320H800M775 360V400M775 360H800M375 800V840M375 800V760M375 840V880M375 160V200M375 160V120M375 200V240M775 800V840M775 800V760M775 800H800M775 840V880M775 840H800M775 160V200M775 160V120M775 160H800M775 200V240M775 200H800M375 1120V1160M375 1120V1080M375 1160V1200M375 480V520M375 480V440M375 520V560M775 1120V1160M775 1120V1080M775 1120H800M775 1160V1200M775 1160H800M775 480V520M775 480V440M775 480H800M775 520V560M775 520H800M375 720V760M375 80V120M775 720V760M775 720H800M775 80V120M775 80H800M375 1040V1080M375 400V440M775 1040V1080M775 1040H800M775 400V440M775 400H800M375 880V920M375 240V280M775 880V920M775 880H800M775 240V280M775 240H800M375 1200V1240M375 560V600M775 1200V1240M775 1200H800M775 560V600M775 560H800M775 760H800M775 120H800M775 1080H800M775 440H800M775 920H800M775 280H800M375 1240V1280M775 1240V1280M775 1240H800M775 600H800M775 1280H800M800 640V680M800 640V600M800 640H825M800 680V720M800 680H825M800 0V40M800 0H825M800 40V80M800 40H825M800 960V1000M800 960V920M800 960H825M800 1000V1040M800 1000H825M800 320V360M800 320V280M800 320H825M800 360V400M800 360H825M800 800V840M800 800V760M800 800H825M800 840V880M800 840H825M800 160V200M800 160V120M800 160H825M800 200V240M800 200H825M800 1120V1160M800 1120V1080M800 1120H825M800 1160V1200M800 1160H825M800 480V520M800 480V440M800 480H825M800 520V560M800 520H825M800 720V760M800 720H825M800 80V120M800 80H825M800 1040V1080M800 1040H825M800 400V440M800 400H825M800 880V920M800 880H825M800 240V280M800 240H825M800 1200V1240M800 1200H825M800 560V600M800 560H825M800 760H825M800 120H825M800 1080H825M800 440H825M800 920H825M800 280H825M800 1240V1280M800 1240H825M800 600H825M800 1280H825M825 640V680M825 640V600M825 640H850M825 680V720M825 680H850M825 0V40M825 0H850M825 40V80M825 40H850M1200 640H1225M1200 640V680M1200 640V600M1200 640H1175M1225 640V680M1225 640V600M1225 640H1250M1225 680H1200M1225 680V720M1225 680H1250M1200 680V720M1200 680H1175M1200 0H1225M1200 0V40M1200 0H1175M1225 0V40M1225 0H1250M1225 40H1200M1225 40V80M1225 40H1250M1200 40V80M1200 40H1175M825 960V1000M825 960V920M825 960H850M825 1000V1040M825 1000H850M825 320V360M825 320V280M825 320H850M825 360V400M825 360H850M1200 960H1225M1200 960V1000M1200 960V920M1200 960H1175M1225 960V1000M1225 960V920M1225 960H1250M1225 1000H1200M1225 1000V1040M1225 1000H1250M1200 1000V1040M1200 1000H1175M1200 320H1225M1200 320V360M1200 320V280M1200 320H1175M1225 320V360M1225 320V280M1225 320H1250M1225 360H1200M1225 360V400M1225 360H1250M1200 360V400M1200 360H1175M825 800V840M825 800V760M825 800H850M825 840V880M825 840H850M825 160V200M825 160V120M825 160H850M825 200V240M825 200H850M1200 800H1225M1200 800V840M1200 800V760M1200 800H1175M1225 800V840M1225 800V760M1225 800H1250M1225 840H1200M1225 840V880M1225 840H1250M1200 840V880M1200 840H1175M1200 160H1225M1200 160V200M1200 160V120M1200 160H1175M1225 160V200M1225 160V120M1225 160H1250M1225 200H1200M1225 200V240M1225 200H1250M1200 200V240M1200 200H1175M825 1120V1160M825 1120V1080M825 1120H850M825 1160V1200M825 1160H850M825 480V520M825 480V440M825 480H850M825 520V560M825 520H850M1200 1120H1225M1200 1120V1160M1200 1120V1080M1200 1120H1175M1225 1120V1160M1225 1120V1080M1225 1120H1250M1225 1160H1200M1225 1160V1200M1225 1160H1250M1200 1160V1200M1200 1160H1175M1200 480H1225M1200 480V520M1200 480V440M1200 480H1175M1225 480V520M1225 480V440M1225 480H1250M1225 520H1200M1225 520V560M1225 520H1250M1200 520V560M1200 520H1175M825 720V760M825 720H850M825 80V120M825 80H850M1225 720H1200M1225 720V760M1225 720H1250M1200 720V760M1200 720H1175M1225 80H1200M1225 80V120M1225 80H1250M1200 80V120M1200 80H1175M825 1040V1080M825 1040H850M825 400V440M825 400H850M1225 1040H1200M1225 1040V1080M1225 1040H1250M1200 1040V1080M1200 1040H1175M1225 400H1200M1225 400V440M1225 400H1250M1200 400V440M1200 400H1175M825 880V920M825 880H850M825 240V280M825 240H850M1225 880H1200M1225 880V920M1225 880H1250M1200 880V920M1200 880H1175M1225 240H1200M1225 240V280M1225 240H1250M1200 240V280M1200 240H1175M825 1200V1240M825 1200H850M825 560V600M825 560H850M1225 1200H1200M1225 1200V1240M1225 1200H1250M1200 1200V1240M1200 1200H1175M1225 560H1200M1225 560V600M1225 560H1250M1200 560V600M1200 560H1175M825 760H850M825 120H850M1225 760H1200M1225 760H1250M1200 760H1175M1225 120H1200M1225 120H1250M1200 120H1175M825 1080H850M825 440H850M1225 1080H1200M1225 1080H1250M1200 1080H1175M1225 440H1200M1225 440H1250M1200 440H1175M825 920H850M825 280H850M1225 920H1200M1225 920H1250M1200 920H1175M1225 280H1200M1225 280H1250M1200 280H1175M825 1240V1280M825 1240H850M825 600H850M1225 1240H1200M1225 1240V1280M1225 1240H1250M1200 1240V1280M1200 1240H1175M1225 600H1200M1225 600H1250M1200 600H1175M825 1280H850M1225 1280H1200M1225 1280H1250M1200 1280H1175M1000 640H1025M1000 640V680M1000 640V600M1000 640H975M1025 640V680M1025 640V600M1025 640H1050M1025 680H1000M1025 680V720M1025 680H1050M1000 680V720M1000 680H975M1000 0H1025M1000 0V40M1000 0H975M1025 0V40M1025 0H1050M1025 40H1000M1025 40V80M1025 40H1050M1000 40V80M1000 40H975M1400 640H1425M1400 640V680M1400 640V600M1400 640H1375M1425 640V680M1425 640V600M1425 640H1450M1425 680H1400M1425 680V720M1425 680H1450M1400 680V720M1400 680H1375M1400 0H1425M1400 0V40M1400 0H1375M1425 0V40M1425 0H1450M1425 40H1400M1425 40V80M1425 40H1450M1400 40V80M1400 40H1375M1000 960H1025M1000 960V1000M1000 960V920M1000 960H975M1025 960V1000M1025 960V920M1025 960H1050M1025 1000H1000M1025 1000V1040M1025 1000H1050M1000 1000V1040M1000 1000H975M1000 320H1025M1000 320V360M1000 320V280M1000 320H975M1025 320V360M1025 320V280M1025 320H1050M1025 360H1000M1025 360V400M1025 360H1050M1000 360V400M1000 360H975M1400 960H1425M1400 960V1000M1400 960V920M1400 960H1375M1425 960V1000M1425 960V920M1425 960H1450M1425 1000H1400M1425 1000V1040M1425 1000H1450M1400 1000V1040M1400 1000H1375M1400 320H1425M1400 320V360M1400 320V280M1400 320H1375M1425 320V360M1425 320V280M1425 320H1450M1425 360H1400M1425 360V400M1425 360H1450M1400 360V400M1400 360H1375M1000 800H1025M1000 800V840M1000 800V760M1000 800H975M1025 800V840M1025 800V760M1025 800H1050M1025 840H1000M1025 840V880M1025 840H1050M1000 840V880M1000 840H975M1000 160H1025M1000 160V200M1000 160V120M1000 160H975M1025 160V200M1025 160V120M1025 160H1050M1025 200H1000M1025 200V240M1025 200H1050M1000 200V240M1000 200H975M1400 800H1425M1400 800V840M1400 800V760M1400 800H1375M1425 800V840M1425 800V760M1425 800H1450M1425 840H1400M1425 840V880M1425 840H1450M1400 840V880M1400 840H1375M1400 160H1425M1400 160V200M1400 160V120M1400 160H1375M1425 160V200M1425 160V120M1425 160H1450M1425 200H1400M1425 200V240M1425 200H1450M1400 200V240M1400 200H1375M1000 1120H1025M1000 1120V1160M1000 1120V1080M1000 1120H975M1025 1120V1160M1025 1120V1080M1025 1120H1050M1025 1160H1000M1025 1160V1200M1025 1160H1050M1000 1160V1200M1000 1160H975M1000 480H1025M1000 480V520M1000 480V440M1000 480H975M1025 480V520M1025 480V440M1025 480H1050M1025 520H1000M1025 520V560M1025 520H1050M1000 520V560M1000 520H975M1400 1120H1425M1400 1120V1160M1400 1120V1080M1400 1120H1375M1425 1120V1160M1425 1120V1080M1425 1120H1450M1425 1160H1400M1425 1160V1200M1425 1160H1450M1400 1160V1200M1400 1160H1375M1400 480H1425M1400 480V520M1400 480V440M1400 480H1375M1425 480V520M1425 480V440M1425 480H1450M1425 520H1400M1425 520V560M1425 520H1450M1400 520V560M1400 520H1375M1025 720H1000M1025 720V760M1025 720H1050M1000 720V760M1000 720H975M1025 80H1000M1025 80V120M1025 80H1050M1000 80V120M1000 80H975M1425 720H1400M1425 720V760M1425 720H1450M1400 720V760M1400 720H1375M1425 80H1400M1425 80V120M1425 80H1450M1400 80V120M1400 80H1375M1025 1040H1000M1025 1040V1080M1025 1040H1050M1000 1040V1080M1000 1040H975M1025 400H1000M1025 400V440M1025 400H1050M1000 400V440M1000 400H975M1425 1040H1400M1425 1040V1080M1425 1040H1450M1400 1040V1080M1400 1040H1375M1425 400H1400M1425 400V440M1425 400H1450M1400 400V440M1400 400H1375M1025 880H1000M1025 880V920M1025 880H1050M1000 880V920M1000 880H975M1025 240H1000M1025 240V280M1025 240H1050M1000 240V280M1000 240H975M1425 880H1400M1425 880V920M1425 880H1450M1400 880V920M1400 880H1375M1425 240H1400M1425 240V280M1425 240H1450M1400 240V280M1400 240H1375M1025 1200H1000M1025 1200V1240M1025 1200H1050M1000 1200V1240M1000 1200H975M1025 560H1000M1025 560V600M1025 560H1050M1000 560V600M1000 560H975M1425 1200H1400M1425 1200V1240M1425 1200H1450M1400 1200V1240M1400 1200H1375M1425 560H1400M1425 560V600M1425 560H1450M1400 560V600M1400 560H1375M1025 760H1000M1025 760H1050M1000 760H975M1025 120H1000M1025 120H1050M1000 120H975M1425 760H1400M1425 760H1450M1400 760H1375M1425 120H1400M1425 120H1450M1400 120H1375M1025 1080H1000M1025 1080H1050M1000 1080H975M1025 440H1000M1025 440H1050M1000 440H975M1425 1080H1400M1425 1080H1450M1400 1080H1375M1425 440H1400M1425 440H1450M1400 440H1375M1025 920H1000M1025 920H1050M1000 920H975M1025 280H1000M1025 280H1050M1000 280H975M1425 920H1400M1425 920H1450M1400 920H1375M1425 280H1400M1425 280H1450M1400 280H1375M1025 1240H1000M1025 1240V1280M1025 1240H1050M1000 1240V1280M1000 1240H975M1025 600H1000M1025 600H1050M1000 600H975M1425 1240H1400M1425 1240V1280M1425 1240H1450M1400 1240V1280M1400 1240H1375M1425 600H1400M1425 600H1450M1400 600H1375M1025 1280H1000M1025 1280H1050M1000 1280H975M1425 1280H1400M1425 1280H1450M1400 1280H1375M900 640H925M900 640V680M900 640V600M900 640H875M925 640V680M925 640V600M925 640H950M925 680H900M925 680V720M925 680H950M900 680V720M900 680H875M900 0H925M900 0V40M900 0H875M925 0V40M925 0H950M925 40H900M925 40V80M925 40H950M900 40V80M900 40H875M1300 640H1325M1300 640V680M1300 640V600M1300 640H1275M1325 640V680M1325 640V600M1325 640H1350M1325 680H1300M1325 680V720M1325 680H1350M1300 680V720M1300 680H1275M1300 0H1325M1300 0V40M1300 0H1275M1325 0V40M1325 0H1350M1325 40H1300M1325 40V80M1325 40H1350M1300 40V80M1300 40H1275M900 960H925M900 960V1000M900 960V920M900 960H875M925 960V1000M925 960V920M925 960H950M925 1000H900M925 1000V1040M925 1000H950M900 1000V1040M900 1000H875M900 320H925M900 320V360M900 320V280M900 320H875M925 320V360M925 320V280M925 320H950M925 360H900M925 360V400M925 360H950M900 360V400M900 360H875M1300 960H1325M1300 960V1000M1300 960V920M1300 960H1275M1325 960V1000M1325 960V920M1325 960H1350M1325 1000H1300M1325 1000V1040M1325 1000H1350M1300 1000V1040M1300 1000H1275M1300 320H1325M1300 320V360M1300 320V280M1300 320H1275M1325 320V360M1325 320V280M1325 320H1350M1325 360H1300M1325 360V400M1325 360H1350M1300 360V400M1300 360H1275M900 800H925M900 800V840M900 800V760M900 800H875M925 800V840M925 800V760M925 800H950M925 840H900M925 840V880M925 840H950M900 840V880M900 840H875M900 160H925M900 160V200M900 160V120M900 160H875M925 160V200M925 160V120M925 160H950M925 200H900M925 200V240M925 200H950M900 200V240M900 200H875M1300 800H1325M1300 800V840M1300 800V760M1300 800H1275M1325 800V840M1325 800V760M1325 800H1350M1325 840H1300M1325 840V880M1325 840H1350M1300 840V880M1300 840H1275M1300 160H1325M1300 160V200M1300 160V120M1300 160H1275M1325 160V200M1325 160V120M1325 160H1350M1325 200H1300M1325 200V240M1325 200H1350M1300 200V240M1300 200H1275M900 1120H925M900 1120V1160M900 1120V1080M900 1120H875M925 1120V1160M925 1120V1080M925 1120H950M925 1160H900M925 1160V1200M925 1160H950M900 1160V1200M900 1160H875M900 480H925M900 480V520M900 480V440M900 480H875M925 480V520M925 480V440M925 480H950M925 520H900M925 520V560M925 520H950M900 520V560M900 520H875M1300 1120H1325M1300 1120V1160M1300 1120V1080M1300 1120H1275M1325 1120V1160M1325 1120V1080M1325 1120H1350M1325 1160H1300M1325 1160V1200M1325 1160H1350M1300 1160V1200M1300 1160H1275M1300 480H1325M1300 480V520M1300 480V440M1300 480H1275M1325 480V520M1325 480V440M1325 480H1350M1325 520H1300M1325 520V560M1325 520H1350M1300 520V560M1300 520H1275M925 720H900M925 720V760M925 720H950M900 720V760M900 720H875M925 80H900M925 80V120M925 80H950M900 80V120M900 80H875M1325 720H1300M1325 720V760M1325 720H1350M1300 720V760M1300 720H1275M1325 80H1300M1325 80V120M1325 80H1350M1300 80V120M1300 80H1275M925 1040H900M925 1040V1080M925 1040H950M900 1040V1080M900 1040H875M925 400H900M925 400V440M925 400H950M900 400V440M900 400H875M1325 1040H1300M1325 1040V1080M1325 1040H1350M1300 1040V1080M1300 1040H1275M1325 400H1300M1325 400V440M1325 400H1350M1300 400V440M1300 400H1275M925 880H900M925 880V920M925 880H950M900 880V920M900 880H875M925 240H900M925 240V280M925 240H950M900 240V280M900 240H875M1325 880H1300M1325 880V920M1325 880H1350M1300 880V920M1300 880H1275M1325 240H1300M1325 240V280M1325 240H1350M1300 240V280M1300 240H1275M925 1200H900M925 1200V1240M925 1200H950M900 1200V1240M900 1200H875M925 560H900M925 560V600M925 560H950M900 560V600M900 560H875M1325 1200H1300M1325 1200V1240M1325 1200H1350M1300 1200V1240M1300 1200H1275M1325 560H1300M1325 560V600M1325 560H1350M1300 560V600M1300 560H1275M925 760H900M925 760H950M900 760H875M925 120H900M925 120H950M900 120H875M1325 760H1300M1325 760H1350M1300 760H1275M1325 120H1300M1325 120H1350M1300 120H1275M925 1080H900M925 1080H950M900 1080H875M925 440H900M925 440H950M900 440H875M1325 1080H1300M1325 1080H1350M1300 1080H1275M1325 440H1300M1325 440H1350M1300 440H1275M925 920H900M925 920H950M900 920H875M925 280H900M925 280H950M900 280H875M1325 920H1300M1325 920H1350M1300 920H1275M1325 280H1300M1325 280H1350M1300 280H1275M925 1240H900M925 1240V1280M925 1240H950M900 1240V1280M900 1240H875M925 600H900M925 600H950M900 600H875M1325 1240H1300M1325 1240V1280M1325 1240H1350M1300 1240V1280M1300 1240H1275M1325 600H1300M1325 600H1350M1300 600H1275M925 1280H900M925 1280H950M900 1280H875M1325 1280H1300M1325 1280H1350M1300 1280H1275M1100 640H1125M1100 640V680M1100 640V600M1100 640H1075M1125 640V680M1125 640V600M1125 640H1150M1125 680H1100M1125 680V720M1125 680H1150M1100 680V720M1100 680H1075M1100 0H1125M1100 0V40M1100 0H1075M1125 0V40M1125 0H1150M1125 40H1100M1125 40V80M1125 40H1150M1100 40V80M1100 40H1075M1500 640H1525M1500 640V680M1500 640V600M1500 640H1475M1525 640V680M1525 640V600M1525 640H1550M1525 680H1500M1525 680V720M1525 680H1550M1500 680V720M1500 680H1475M1500 0H1525M1500 0V40M1500 0H1475M1525 0V40M1525 0H1550M1525 40H1500M1525 40V80M1525 40H1550M1500 40V80M1500 40H1475M1100 960H1125M1100 960V1000M1100 960V920M1100 960H1075M1125 960V1000M1125 960V920M1125 960H1150M1125 1000H1100M1125 1000V1040M1125 1000H1150M1100 1000V1040M1100 1000H1075M1100 320H1125M1100 320V360M1100 320V280M1100 320H1075M1125 320V360M1125 320V280M1125 320H1150M1125 360H1100M1125 360V400M1125 360H1150M1100 360V400M1100 360H1075M1500 960H1525M1500 960V1000M1500 960V920M1500 960H1475M1525 960V1000M1525 960V920M1525 960H1550M1525 1000H1500M1525 1000V1040M1525 1000H1550M1500 1000V1040M1500 1000H1475M1500 320H1525M1500 320V360M1500 320V280M1500 320H1475M1525 320V360M1525 320V280M1525 320H1550M1525 360H1500M1525 360V400M1525 360H1550M1500 360V400M1500 360H1475M1100 800H1125M1100 800V840M1100 800V760M1100 800H1075M1125 800V840M1125 800V760M1125 800H1150M1125 840H1100M1125 840V880M1125 840H1150M1100 840V880M1100 840H1075M1100 160H1125M1100 160V200M1100 160V120M1100 160H1075M1125 160V200M1125 160V120M1125 160H1150M1125 200H1100M1125 200V240M1125 200H1150M1100 200V240M1100 200H1075M1500 800H1525M1500 800V840M1500 800V760M1500 800H1475M1525 800V840M1525 800V760M1525 800H1550M1525 840H1500M1525 840V880M1525 840H1550M1500 840V880M1500 840H1475M1500 160H1525M1500 160V200M1500 160V120M1500 160H1475M1525 160V200M1525 160V120M1525 160H1550M1525 200H1500M1525 200V240M1525 200H1550M1500 200V240M1500 200H1475M1100 1120H1125M1100 1120V1160M1100 1120V1080M1100 1120H1075M1125 1120V1160M1125 1120V1080M1125 1120H1150M1125 1160H1100M1125 1160V1200M1125 1160H1150M1100 1160V1200M1100 1160H1075M1100 480H1125M1100 480V520M1100 480V440M1100 480H1075M1125 480V520M1125 480V440M1125 480H1150M1125 520H1100M1125 520V560M1125 520H1150M1100 520V560M1100 520H1075M1500 1120H1525M1500 1120V1160M1500 1120V1080M1500 1120H1475M1525 1120V1160M1525 1120V1080M1525 1120H1550M1525 1160H1500M1525 1160V1200M1525 1160H1550M1500 1160V1200M1500 1160H1475M1500 480H1525M1500 480V520M1500 480V440M1500 480H1475M1525 480V520M1525 480V440M1525 480H1550M1525 520H1500M1525 520V560M1525 520H1550M1500 520V560M1500 520H1475M1125 720H1100M1125 720V760M1125 720H1150M1100 720V760M1100 720H1075M1125 80H1100M1125 80V120M1125 80H1150M1100 80V120M1100 80H1075M1525 720H1500M1525 720V760M1525 720H1550M1500 720V760M1500 720H1475M1525 80H1500M1525 80V120M1525 80H1550M1500 80V120M1500 80H1475M1125 1040H1100M1125 1040V1080M1125 1040H1150M1100 1040V1080M1100 1040H1075M1125 400H1100M1125 400V440M1125 400H1150M1100 400V440M1100 400H1075M1525 1040H1500M1525 1040V1080M1525 1040H1550M1500 1040V1080M1500 1040H1475M1525 400H1500M1525 400V440M1525 400H1550M1500 400V440M1500 400H1475M1125 880H1100M1125 880V920M1125 880H1150M1100 880V920M1100 880H1075M1125 240H1100M1125 240V280M1125 240H1150M1100 240V280M1100 240H1075M1525 880H1500M1525 880V920M1525 880H1550M1500 880V920M1500 880H1475M1525 240H1500M1525 240V280M1525 240H1550M1500 240V280M1500 240H1475M1125 1200H1100M1125 1200V1240M1125 1200H1150M1100 1200V1240M1100 1200H1075M1125 560H1100M1125 560V600M1125 560H1150M1100 560V600M1100 560H1075M1525 1200H1500M1525 1200V1240M1525 1200H1550M1500 1200V1240M1500 1200H1475M1525 560H1500M1525 560V600M1525 560H1550M1500 560V600M1500 560H1475M1125 760H1100M1125 760H1150M1100 760H1075M1125 120H1100M1125 120H1150M1100 120H1075M1525 760H1500M1525 760H1550M1500 760H1475M1525 120H1500M1525 120H1550M1500 120H1475M1125 1080H1100M1125 1080H1150M1100 1080H1075M1125 440H1100M1125 440H1150M1100 440H1075M1525 1080H1500M1525 1080H1550M1500 1080H1475M1525 440H1500M1525 440H1550M1500 440H1475M1125 920H1100M1125 920H1150M1100 920H1075M1125 280H1100M1125 280H1150M1100 280H1075M1525 920H1500M1525 920H1550M1500 920H1475M1525 280H1500M1525 280H1550M1500 280H1475M1125 1240H1100M1125 1240V1280M1125 1240H1150M1100 1240V1280M1100 1240H1075M1125 600H1100M1125 600H1150M1100 600H1075M1525 1240H1500M1525 1240V1280M1525 1240H1550M1500 1240V1280M1500 1240H1475M1525 600H1500M1525 600H1550M1500 600H1475M1125 1280H1100M1125 1280H1150M1100 1280H1075M1525 1280H1500M1525 1280H1550M1500 1280H1475M850 640V680M850 640V600M850 640H875M850 680V720M850 680H875M850 0V40M850 0H875M850 40V80M850 40H875M1250 640V680M1250 640V600M1250 640H1275M1250 680V720M1250 680H1275M1250 0V40M1250 0H1275M1250 40V80M1250 40H1275M850 960V1000M850 960V920M850 960H875M850 1000V1040M850 1000H875M850 320V360M850 320V280M850 320H875M850 360V400M850 360H875M1250 960V1000M1250 960V920M1250 960H1275M1250 1000V1040M1250 1000H1275M1250 320V360M1250 320V280M1250 320H1275M1250 360V400M1250 360H1275M850 800V840M850 800V760M850 800H875M850 840V880M850 840H875M850 160V200M850 160V120M850 160H875M850 200V240M850 200H875M1250 800V840M1250 800V760M1250 800H1275M1250 840V880M1250 840H1275M1250 160V200M1250 160V120M1250 160H1275M1250 200V240M1250 200H1275M850 1120V1160M850 1120V1080M850 1120H875M850 1160V1200M850 1160H875M850 480V520M850 480V440M850 480H875M850 520V560M850 520H875M1250 1120V1160M1250 1120V1080M1250 1120H1275M1250 1160V1200M1250 1160H1275M1250 480V520M1250 480V440M1250 480H1275M1250 520V560M1250 520H1275M850 720V760M850 720H875M850 80V120M850 80H875M1250 720V760M1250 720H1275M1250 80V120M1250 80H1275M850 1040V1080M850 1040H875M850 400V440M850 400H875M1250 1040V1080M1250 1040H1275M1250 400V440M1250 400H1275M850 880V920M850 880H875M850 240V280M850 240H875M1250 880V920M1250 880H1275M1250 240V280M1250 240H1275M850 1200V1240M850 1200H875M850 560V600M850 560H875M1250 1200V1240M1250 1200H1275M1250 560V600M1250 560H1275M850 760H875M850 120H875M1250 760H1275M1250 120H1275M850 1080H875M850 440H875M1250 1080H1275M1250 440H1275M850 920H875M850 280H875M1250 920H1275M1250 280H1275M850 1240V1280M850 1240H875M850 600H875M1250 1240V1280M1250 1240H1275M1250 600H1275M850 1280H875M1250 1280H1275M1050 640V680M1050 640V600M1050 640H1075M1050 680V720M1050 680H1075M1050 0V40M1050 0H1075M1050 40V80M1050 40H1075M1450 640V680M1450 640V600M1450 640H1475M1450 680V720M1450 680H1475M1450 0V40M1450 0H1475M1450 40V80M1450 40H1475M1050 960V1000M1050 960V920M1050 960H1075M1050 1000V1040M1050 1000H1075M1050 320V360M1050 320V280M1050 320H1075M1050 360V400M1050 360H1075M1450 960V1000M1450 960V920M1450 960H1475M1450 1000V1040M1450 1000H1475M1450 320V360M1450 320V280M1450 320H1475M1450 360V400M1450 360H1475M1050 800V840M1050 800V760M1050 800H1075M1050 840V880M1050 840H1075M1050 160V200M1050 160V120M1050 160H1075M1050 200V240M1050 200H1075M1450 800V840M1450 800V760M1450 800H1475M1450 840V880M1450 840H1475M1450 160V200M1450 160V120M1450 160H1475M1450 200V240M1450 200H1475M1050 1120V1160M1050 1120V1080M1050 1120H1075M1050 1160V1200M1050 1160H1075M1050 480V520M1050 480V440M1050 480H1075M1050 520V560M1050 520H1075M1450 1120V1160M1450 1120V1080M1450 1120H1475M1450 1160V1200M1450 1160H1475M1450 480V520M1450 480V440M1450 480H1475M1450 520V560M1450 520H1475M1050 720V760M1050 720H1075M1050 80V120M1050 80H1075M1450 720V760M1450 720H1475M1450 80V120M1450 80H1475M1050 1040V1080M1050 1040H1075M1050 400V440M1050 400H1075M1450 1040V1080M1450 1040H1475M1450 400V440M1450 400H1475M1050 880V920M1050 880H1075M1050 240V280M1050 240H1075M1450 880V920M1450 880H1475M1450 240V280M1450 240H1475M1050 1200V1240M1050 1200H1075M1050 560V600M1050 560H1075M1450 1200V1240M1450 1200H1475M1450 560V600M1450 560H1475M1050 760H1075M1050 120H1075M1450 760H1475M1450 120H1475M1050 1080H1075M1050 440H1075M1450 1080H1475M1450 440H1475M1050 920H1075M1050 280H1075M1450 920H1475M1450 280H1475M1050 1240V1280M1050 1240H1075M1050 600H1075M1450 1240V1280M1450 1240H1475M1450 600H1475M1050 1280H1075M1450 1280H1475M950 640V680M950 640V600M950 640H975M950 680V720M950 680H975M950 0V40M950 0H975M950 40V80M950 40H975M1350 640V680M1350 640V600M1350 640H1375M1350 680V720M1350 680H1375M1350 0V40M1350 0H1375M1350 40V80M1350 40H1375M950 960V1000M950 960V920M950 960H975M950 1000V1040M950 1000H975M950 320V360M950 320V280M950 320H975M950 360V400M950 360H975M1350 960V1000M1350 960V920M1350 960H1375M1350 1000V1040M1350 1000H1375M1350 320V360M1350 320V280M1350 320H1375M1350 360V400M1350 360H1375M950 800V840M950 800V760M950 800H975M950 840V880M950 840H975M950 160V200M950 160V120M950 160H975M950 200V240M950 200H975M1350 800V840M1350 800V760M1350 800H1375M1350 840V880M1350 840H1375M1350 160V200M1350 160V120M1350 160H1375M1350 200V240M1350 200H1375M950 1120V1160M950 1120V1080M950 1120H975M950 1160V1200M950 1160H975M950 480V520M950 480V440M950 480H975M950 520V560M950 520H975M1350 1120V1160M1350 1120V1080M1350 1120H1375M1350 1160V1200M1350 1160H1375M1350 480V520M1350 480V440M1350 480H1375M1350 520V560M1350 520H1375M950 720V760M950 720H975M950 80V120M950 80H975M1350 720V760M1350 720H1375M1350 80V120M1350 80H1375M950 1040V1080M950 1040H975M950 400V440M950 400H975M1350 1040V1080M1350 1040H1375M1350 400V440M1350 400H1375M950 880V920M950 880H975M950 240V280M950 240H975M1350 880V920M1350 880H1375M1350 240V280M1350 240H1375M950 1200V1240M950 1200H975M950 560V600M950 560H975M1350 1200V1240M1350 1200H1375M1350 560V600M1350 560H1375M950 760H975M950 120H975M1350 760H1375M1350 120H1375M950 1080H975M950 440H975M1350 1080H1375M1350 440H1375M950 920H975M950 280H975M1350 920H1375M1350 280H1375M950 1240V1280M950 1240H975M950 600H975M1350 1240V1280M1350 1240H1375M1350 600H1375M950 1280H975M1350 1280H1375M1150 640V680M1150 640V600M1150 640H1175M1150 680V720M1150 680H1175M1150 0V40M1150 0H1175M1150 40V80M1150 40H1175M1550 640V680M1550 640V600M1550 640H1575M1550 680V720M1550 680H1575M1550 0V40M1550 0H1575M1550 40V80M1550 40H1575M1150 960V1000M1150 960V920M1150 960H1175M1150 1000V1040M1150 1000H1175M1150 320V360M1150 320V280M1150 320H1175M1150 360V400M1150 360H1175M1550 960V1000M1550 960V920M1550 960H1575M1550 1000V1040M1550 1000H1575M1550 320V360M1550 320V280M1550 320H1575M1550 360V400M1550 360H1575M1150 800V840M1150 800V760M1150 800H1175M1150 840V880M1150 840H1175M1150 160V200M1150 160V120M1150 160H1175M1150 200V240M1150 200H1175M1550 800V840M1550 800V760M1550 800H1575M1550 840V880M1550 840H1575M1550 160V200M1550 160V120M1550 160H1575M1550 200V240M1550 200H1575M1150 1120V1160M1150 1120V1080M1150 1120H1175M1150 1160V1200M1150 1160H1175M1150 480V520M1150 480V440M1150 480H1175M1150 520V560M1150 520H1175M1550 1120V1160M1550 1120V1080M1550 1120H1575M1550 1160V1200M1550 1160H1575M1550 480V520M1550 480V440M1550 480H1575M1550 520V560M1550 520H1575M1150 720V760M1150 720H1175M1150 80V120M1150 80H1175M1550 720V760M1550 720H1575M1550 80V120M1550 80H1575M1150 1040V1080M1150 1040H1175M1150 400V440M1150 400H1175M1550 1040V1080M1550 1040H1575M1550 400V440M1550 400H1575M1150 880V920M1150 880H1175M1150 240V280M1150 240H1175M1550 880V920M1550 880H1575M1550 240V280M1550 240H1575M1150 1200V1240M1150 1200H1175M1150 560V600M1150 560H1175M1550 1200V1240M1550 1200H1575M1550 560V600M1550 560H1575M1150 760H1175M1150 120H1175M1550 760H1575M1550 120H1575M1150 1080H1175M1150 440H1175M1550 1080H1575M1550 440H1575M1150 920H1175M1150 280H1175M1550 920H1575M1550 280H1575M1150 1240V1280M1150 1240H1175M1150 600H1175M1550 1240V1280M1550 1240H1575M1550 600H1575M1150 1280H1175M1550 1280H1575M875 640V680M875 640V600M875 680V720M875 0V40M875 40V80M1275 640V680M1275 640V600M1275 680V720M1275 0V40M1275 40V80M875 960V1000M875 960V920M875 1000V1040M875 320V360M875 320V280M875 360V400M1275 960V1000M1275 960V920M1275 1000V1040M1275 320V360M1275 320V280M1275 360V400M875 800V840M875 800V760M875 840V880M875 160V200M875 160V120M875 200V240M1275 800V840M1275 800V760M1275 840V880M1275 160V200M1275 160V120M1275 200V240M875 1120V1160M875 1120V1080M875 1160V1200M875 480V520M875 480V440M875 520V560M1275 1120V1160M1275 1120V1080M1275 1160V1200M1275 480V520M1275 480V440M1275 520V560M875 720V760M875 80V120M1275 720V760M1275 80V120M875 1040V1080M875 400V440M1275 1040V1080M1275 400V440M875 880V920M875 240V280M1275 880V920M1275 240V280M875 1200V1240M875 560V600M1275 1200V1240M1275 560V600M875 1240V1280M1275 1240V1280M1075 640V680M1075 640V600M1075 680V720M1075 0V40M1075 40V80M1475 640V680M1475 640V600M1475 680V720M1475 0V40M1475 40V80M1075 960V1000M1075 960V920M1075 1000V1040M1075 320V360M1075 320V280M1075 360V400M1475 960V1000M1475 960V920M1475 1000V1040M1475 320V360M1475 320V280M1475 360V400M1075 800V840M1075 800V760M1075 840V880M1075 160V200M1075 160V120M1075 200V240M1475 800V840M1475 800V760M1475 840V880M1475 160V200M1475 160V120M1475 200V240M1075 1120V1160M1075 1120V1080M1075 1160V1200M1075 480V520M1075 480V440M1075 520V560M1475 1120V1160M1475 1120V1080M1475 1160V1200M1475 480V520M1475 480V440M1475 520V560M1075 720V760M1075 80V120M1475 720V760M1475 80V120M1075 1040V1080M1075 400V440M1475 1040V1080M1475 400V440M1075 880V920M1075 240V280M1475 880V920M1475 240V280M1075 1200V1240M1075 560V600M1475 1200V1240M1475 560V600M1075 1240V1280M1475 1240V1280M975 640V680M975 640V600M975 680V720M975 0V40M975 40V80M1375 640V680M1375 640V600M1375 680V720M1375 0V40M1375 40V80M975 960V1000M975 960V920M975 1000V1040M975 320V360M975 320V280M975 360V400M1375 960V1000M1375 960V920M1375 1000V1040M1375 320V360M1375 320V280M1375 360V400M975 800V840M975 800V760M975 840V880M975 160V200M975 160V120M975 200V240M1375 800V840M1375 800V760M1375 840V880M1375 160V200M1375 160V120M1375 200V240M975 1120V1160M975 1120V1080M975 1160V1200M975 480V520M975 480V440M975 520V560M1375 1120V1160M1375 1120V1080M1375 1160V1200M1375 480V520M1375 480V440M1375 520V560M975 720V760M975 80V120M1375 720V760M1375 80V120M975 1040V1080M975 400V440M1375 1040V1080M1375 400V440M975 880V920M975 240V280M1375 880V920M1375 240V280M975 1200V1240M975 560V600M1375 1200V1240M1375 560V600M975 1240V1280M1375 1240V1280M1175 640V680M1175 640V600M1175 680V720M1175 0V40M1175 40V80M1575 640V680M1575 640V600M1575 640H1600M1575 680V720M1575 680H1600M1575 0V40M1575 0H1600V40M1575 40V80M1575 40H1600M1175 960V1000M1175 960V920M1175 1000V1040M1175 320V360M1175 320V280M1175 360V400M1575 960V1000M1575 960V920M1575 960H1600M1575 1000V1040M1575 1000H1600M1575 320V360M1575 320V280M1575 320H1600M1575 360V400M1575 360H1600M1175 800V840M1175 800V760M1175 840V880M1175 160V200M1175 160V120M1175 200V240M1575 800V840M1575 800V760M1575 800H1600M1575 840V880M1575 840H1600M1575 160V200M1575 160V120M1575 160H1600M1575 200V240M1575 200H1600M1175 1120V1160M1175 1120V1080M1175 1160V1200M1175 480V520M1175 480V440M1175 520V560M1575 1120V1160M1575 1120V1080M1575 1120H1600M1575 1160V1200M1575 1160H1600M1575 480V520M1575 480V440M1575 480H1600M1575 520V560M1575 520H1600M1175 720V760M1175 80V120M1575 720V760M1575 720H1600M1575 80V120M1575 80H1600M1175 1040V1080M1175 400V440M1575 1040V1080M1575 1040H1600M1575 400V440M1575 400H1600M1175 880V920M1175 240V280M1575 880V920M1575 880H1600M1575 240V280M1575 240H1600M1175 1200V1240M1175 560V600M1575 1200V1240M1575 1200H1600M1575 560V600M1575 560H1600M1575 760H1600M1575 120H1600M1575 1080H1600M1575 440H1600M1575 920H1600M1575 280H1600M1175 1240V1280M1575 1240V1280M1575 1240H1600M1575 600H1600M1575 1280H1600V1240M1600 640V680M1600 640V600M1600 680V720M1600 40V80M1600 960V1000M1600 960V920M1600 1000V1040M1600 320V360M1600 320V280M1600 360V400M1600 800V840M1600 800V760M1600 840V880M1600 160V200M1600 160V120M1600 200V240M1600 1120V1160M1600 1120V1080M1600 1160V1200M1600 480V520M1600 480V440M1600 520V560M1600 720V760M1600 80V120M1600 1040V1080M1600 400V440M1600 880V920M1600 240V280M1600 1200V1240M1600 560V600" stroke="url(#paint0_linear_292_144)"/>
<g opacity="0.3" filter="url(#filter0_f_292_144)">
<ellipse cx="595.999" cy="299.2" rx="248" ry="115.2" fill="#01FEB5"/>
</g>
<g opacity="0.6" filter="url(#filter1_f_292_144)">
<rect width="271.563" height="1357.63" transform="matrix(-0.529985 -0.848007 0.530013 -0.84799 178.927 1195.35)" fill="url(#paint1_radial_292_144)"/>
<rect width="271.53" height="1357.63" transform="matrix(-0.529985 -0.848007 0.530013 -0.84799 832.537 589.317)" fill="url(#paint2_radial_292_144)"/>
</g>
</g>
<defs>
<filter id="filter0_f_292_144" x="127.999" y="-36" width="936" height="670.4" filterUnits="userSpaceOnUse" color-interpolation-filters="sRGB">
<feFlood flood-opacity="0" result="BackgroundImageFix"/>
<feBlend mode="normal" in="SourceGraphic" in2="BackgroundImageFix" result="shape"/>
<feGaussianBlur stdDeviation="110" result="effect1_foregroundBlur_292_144"/>
</filter>
<filter id="filter1_f_292_144" x="5.00244" y="-822.199" width="1577.1" height="2047.55" filterUnits="userSpaceOnUse" color-interpolation-filters="sRGB">
<feFlood flood-opacity="0" result="BackgroundImageFix"/>
<feBlend mode="normal" in="SourceGraphic" in2="BackgroundImageFix" result="shape"/>
<feGaussianBlur stdDeviation="15" result="effect1_foregroundBlur_292_144"/>
</filter>
<linearGradient id="paint0_linear_292_144" x1="800" y1="0" x2="800" y2="666.4" gradientUnits="userSpaceOnUse">
<stop stop-color="#1D1E25"/>
<stop offset="1" stop-color="#12131A" stop-opacity="0"/>
</linearGradient>
<radialGradient id="paint1_radial_292_144" cx="0" cy="0" r="1" gradientUnits="userSpaceOnUse" gradientTransform="translate(404.759 736.471) rotate(-158.856) scale(478.175 478.127)">
<stop stop-color="#00BE88"/>
<stop offset="1" stop-color="#12131A" stop-opacity="0"/>
</radialGradient>
<radialGradient id="paint2_radial_292_144" cx="0" cy="0" r="1" gradientUnits="userSpaceOnUse" gradientTransform="translate(-75.7707 451.125) rotate(-21.2726) scale(412.166 412.161)">
<stop stop-color="#00BE88"/>
<stop offset="1" stop-color="#12131A" stop-opacity="0"/>
</radialGradient>
</defs>
</svg>
