<?xml version="1.0" standalone="no"?>
<!DOCTYPE svg PUBLIC "-//W3C//DTD SVG 20010904//EN"
 "http://www.w3.org/TR/2001/REC-SVG-20010904/DTD/svg10.dtd">
<svg version="1.0" xmlns="http://www.w3.org/2000/svg"
 width="148.000000pt" height="108.000000pt" viewBox="0 0 148.000000 108.000000"
 preserveAspectRatio="xMidYMid meet">

<g transform="translate(0.000000,108.000000) scale(0.100000,-0.100000)"
fill="#000000" stroke="none">
<path d="M1242 745 c-11 -12 -10 -15 3 -15 8 0 15 7 15 15 0 18 -2 18 -18 0z"/>
<path d="M1048 690 c-1 -33 0 -60 4 -60 3 0 8 27 10 60 1 33 0 60 -4 60 -3 0
-8 -27 -10 -60z"/>
<path d="M635 598 c-4 -10 -4 -21 -1 -27 10 -15 41 -6 44 14 3 11 0 15 -8 10
-7 -4 -16 -1 -21 6 -6 11 -9 10 -14 -3z"/>
<path d="M707 603 c-4 -3 -7 -11 -7 -17 0 -6 4 -5 9 3 6 9 22 12 49 9 22 -2
38 0 36 4 -6 10 -78 11 -87 1z"/>
<path d="M860 599 c0 -7 -9 -9 -21 -6 -15 4 -19 1 -17 -10 2 -9 13 -17 26 -18
17 -1 22 4 22 22 0 13 -2 23 -5 23 -3 0 -5 -5 -5 -11z"/>
<path d="M940 590 c0 -24 2 -25 75 -27 43 -1 75 2 75 7 0 6 -29 10 -65 10 -50
0 -66 4 -74 18 -9 15 -10 14 -11 -8z"/>
<path d="M547 586 c-16 -13 -16 -14 -1 -20 20 -8 27 -3 22 18 -2 12 -6 13 -21
2z"/>
<path d="M680 536 c-10 -31 -16 -36 -43 -36 l-32 0 5 -57 4 -58 6 45 c4 36 9
46 27 48 14 2 27 16 38 44 9 22 14 42 11 45 -2 2 -9 -12 -16 -31z"/>
<path d="M1155 560 c-3 -5 -1 -18 4 -27 9 -16 10 -14 11 10 0 28 -5 34 -15 17z"/>
<path d="M336 552 c-10 -16 -24 -92 -17 -92 3 0 11 21 18 48 11 46 11 62 -1
44z"/>
<path d="M740 500 c0 -11 5 -20 10 -20 6 0 10 9 10 20 0 11 -4 20 -10 20 -5 0
-10 -9 -10 -20z"/>
<path d="M821 515 c-1 -19 18 -40 36 -40 14 0 19 -11 24 -45 6 -41 6 -42 8
-10 1 19 4 45 7 58 6 20 3 22 -29 22 -19 0 -38 6 -40 13 -3 6 -6 8 -6 2z"/>
<path d="M1220 499 c13 -6 28 -15 32 -22 5 -8 8 -4 8 11 0 18 -5 22 -32 21
-32 0 -32 -1 -8 -10z"/>
<path d="M400 490 c0 -5 23 -10 50 -10 l50 0 0 -44 c0 -44 12 -66 25 -46 3 5
9 32 12 60 l6 50 -72 0 c-41 0 -71 -4 -71 -10z"/>
<path d="M964 478 c3 -13 6 -37 6 -54 0 -19 6 -34 15 -38 12 -4 15 5 15 54 0
54 -2 60 -21 60 -17 0 -20 -4 -15 -22z"/>
<path d="M1070 490 c0 -5 7 -10 15 -10 8 0 15 -4 15 -10 0 -20 36 -10 37 10 1
16 -4 20 -33 20 -19 0 -34 -4 -34 -10z"/>
<path d="M340 410 c0 -5 23 -10 50 -10 28 0 50 5 50 10 0 6 -22 10 -50 10 -27
0 -50 -4 -50 -10z"/>
<path d="M1070 410 c0 -5 18 -10 40 -10 22 0 40 5 40 10 0 6 -18 10 -40 10
-22 0 -40 -4 -40 -10z"/>
</g>
</svg>
