<svg width="46" height="45" viewBox="0 0 46 45" fill="none" xmlns="http://www.w3.org/2000/svg">
<path d="M0.768066 6.13086H8.18152C9.14252 20.2001 9.62302 27.399 9.62302 27.7276H9.69166C10.2408 19.7716 10.9272 12.5727 11.751 6.13086H19.5763C19.7021 6.13086 19.7936 6.9593 19.8508 8.61619C19.9881 9.80173 20.4686 16.4007 21.2923 28.4132H21.361C21.361 25.2565 22.0245 17.8291 23.3516 6.13086H30.7651C29.9871 13.9725 28.866 24.8851 27.4016 38.8687H17.9288C17.2424 35.0836 16.4873 29.5416 15.6636 22.2427H15.595C15.4577 23.7853 14.7941 29.3273 13.6043 38.8687H4.13158L0.768066 6.13086Z" fill="white"/>
<path d="M31.2463 6.13086H45.2323V12.4728L39.6036 32.2697H45.2323V38.8687H31.2291V34.3266C31.2291 34.198 33.1511 26.9991 36.9951 12.7299H31.2463V6.13086Z" fill="white"/>
</svg>
