<svg width="46" height="46" viewBox="0 0 46 46" fill="none" xmlns="http://www.w3.org/2000/svg">
<path d="M18.5508 23.8768V38.6047H16.6793V32.1483L14.2099 30.0738H16.6793V23.8768H17.5977L17.6583 32.5597L17.719 23.8768H18.1435L18.2042 27.0512L18.2648 23.8768H18.5508ZM41.7105 23.8768L41.2166 25.4416H40.1249L40.0902 26.7562L40.0555 25.4416H39.3451V38.6047H37.4737V25.4416H35.7495L35.7321 26.0318L35.7148 25.4416H35.0736L35.5675 23.8768H35.7061L35.6888 22.124H35.5155L35.4981 23.5459L35.4808 22.124H34.7531L34.6923 15.3548L34.6318 22.124H34.3112L34.2678 28.3926V38.6047H32.5869L31.0447 33.7132L31.01 36.7089L30.9754 33.4986L29.2771 28.1065V38.5957H27.7002V23.8768H28.922L28.9133 22.2402C28.8006 22.2225 28.688 22.2046 28.5841 22.1867L28.5581 20.4161C28.8006 20.595 29.1038 20.6933 29.4851 20.6933C30.6202 20.6933 31.1054 19.8438 31.1054 18.735V10.7853C31.1054 9.67644 30.6202 8.82691 29.4851 8.82691C28.3674 8.82691 27.8822 9.67644 27.8822 10.7853V18.735C27.8822 19.4235 28.0729 20.0137 28.4887 20.3624L28.4627 22.1598C26.7819 21.7484 26.0281 20.2729 26.0281 18.4578V11.0714C26.0281 8.89846 27.0764 7.25308 29.4765 7.25308C31.9198 7.25308 32.9508 8.90739 32.9508 11.0714V18.4578C32.9508 20.6038 31.9198 22.276 29.4765 22.276C29.3032 22.276 29.1472 22.2671 28.9912 22.2492L28.9826 23.8768H29.5545L32.6649 33.7132V23.8768H33.0462L33.1068 30.646L33.1675 23.8768H34.2071L34.1985 22.124V7.39616H37.5689C40.0729 7.39616 40.9567 9.05048 40.9567 11.2145V18.2968C40.9567 20.4428 40.0729 22.1151 37.5689 22.1151H35.9834L35.9573 23.0094L35.9313 22.1151H35.7667L35.7495 23.8679H41.7105V23.8768ZM36.0527 20.5592H36.7284L36.7718 16.553L36.8152 20.5592H37.3351C38.6433 20.5592 39.1025 19.7365 39.1025 18.6277V10.8747C39.1025 10.1951 38.9206 9.62278 38.47 9.28298L38.4267 13.3338L38.3834 9.22932C38.1235 9.05942 37.7769 8.97 37.3351 8.97H36.0527V20.5592ZM14.6605 22.124L14.6258 20.5592H14.4352L14.3919 12.3502L14.3486 20.5592H13.8201V7.39616H11.9659V22.124H13.3868L13.4128 23.0183L13.4388 22.124H13.6814L13.6901 23.8768H11.9312V38.6047H13.7854V22.124H14.6605ZM16.1767 28.4105L16.2201 22.124H16.7486L17.2425 20.5592H16.2201L16.1767 16.553L16.1334 20.5592H15.1024L15.0677 19.2357L15.0331 20.5592H14.7645L14.7298 22.124H16.1248L16.1767 28.4105ZM20.1537 22.124H20.2056C18.6201 21.668 17.9009 20.2194 17.9009 18.4488V11.0625C17.9009 8.88952 18.9493 7.24414 21.3493 7.24414C23.7927 7.24414 24.8237 8.89846 24.8237 11.0625V17.8765L24.7978 23.8768H26.4526V35.1261C26.4526 37.2991 25.5516 38.7567 23.2122 38.7567C20.7949 38.7567 19.8244 37.2991 19.8244 35.1261V23.8768H20.0238L20.0843 30.646L20.1537 22.124ZM21.358 20.6844C22.493 20.6844 22.9782 19.8348 22.9782 18.726V10.7763C22.9782 10.1772 22.8309 9.6496 22.519 9.29192L22.4757 16.1774L22.4323 9.20249C22.1724 8.96105 21.8258 8.81798 21.358 8.81798C20.2403 8.81798 19.7551 9.66749 19.7551 10.7763V18.726C19.7551 19.8438 20.2403 20.6844 21.358 20.6844ZM24.7458 19.4592C24.7111 19.6739 24.659 19.8796 24.5898 20.0763L24.5465 26.7383L24.5031 20.3177C24.4339 20.4965 24.3471 20.6665 24.2432 20.8274L24.1912 14.7109L24.1306 21.0063C24.0786 21.0779 24.0266 21.1493 23.966 21.212L23.914 19.96L23.8619 21.3192C23.8014 21.3819 23.7407 21.4354 23.6801 21.4891L23.6454 26.7293L23.6107 21.5518C23.3767 21.7396 23.1082 21.9006 22.8049 22.0168L22.7789 23.0094L22.7529 22.0436C22.675 22.0705 22.5969 22.0972 22.519 22.1151L22.4757 28.4015L22.4323 22.1419C22.1117 22.2225 21.7566 22.2671 21.3666 22.2671C20.9595 22.2671 20.5869 22.2135 20.2576 22.124L20.2489 23.8679H21.7046V35.296C21.7046 36.378 22.1031 37.1649 23.2381 37.1649C24.3558 37.1649 24.7544 36.3869 24.7544 35.296L24.7458 19.4592ZM10.8395 16.8839V19.1016C10.8395 21.0242 9.96442 22.0882 7.83301 22.1151L7.81568 25.0302L7.79835 22.1151C7.77237 22.1151 5.22505 22.1151 5.22505 22.1151L5.19906 23.0094L5.11242 20.4428L5.05177 22.1151H4.84382L4.78317 8.85375L4.72252 22.124H4.28931V7.39616H7.42578C9.65251 7.39616 10.4583 8.46029 10.4583 10.4186V12.1534C10.4583 13.3696 10.0164 14.1744 9.00269 14.4784C10.2244 14.7199 10.8395 15.5426 10.8395 16.8839ZM6.14347 13.8078H7.2785C8.2489 13.8078 8.70811 13.307 8.70811 12.3502V10.3918C8.70811 9.43499 8.2489 8.96105 7.23517 8.96105H6.14347V13.8078ZM7.79835 20.5413L7.77237 15.2922C7.68572 15.2832 7.59041 15.2743 7.4951 15.2743H6.14347V20.5503H7.51243C7.60774 20.5592 7.70305 20.5503 7.79835 20.5413ZM9.00269 16.6961C9.00269 15.8823 8.64745 15.4084 7.859 15.3101L7.83301 20.5413C8.60413 20.4428 9.00269 19.951 9.00269 19.1283V16.6961Z" fill="white"/>
</svg>
