<svg width="18" height="19" viewBox="0 0 18 19" fill="none" xmlns="http://www.w3.org/2000/svg">
<path d="M15.75 9.28901V3.96238C15.75 3.88049 15.6474 3.84302 15.5968 3.90825L9.86128 11.1807C9.85113 11.1935 9.84476 11.2089 9.8429 11.2253C9.84105 11.2416 9.84378 11.2581 9.8508 11.2729C9.85781 11.2877 9.86881 11.3002 9.88253 11.3089C9.89625 11.3177 9.91213 11.3223 9.92832 11.3222H14.0726C14.1848 11.3222 14.2901 11.2709 14.3599 11.1821L15.6693 9.52218C15.7213 9.45556 15.75 9.37367 15.75 9.28901V9.28901ZM2.33072 9.52218L6.63918 14.9848C6.70895 15.0736 6.8143 15.125 6.9265 15.125H11.0708C11.1433 15.125 11.183 15.0403 11.1378 14.9834L2.40324 3.90825C2.35261 3.84441 2.25 3.88049 2.25 3.96238V9.28901C2.25 9.37367 2.27873 9.45556 2.33072 9.52218Z" fill="#9296A9"/>
</svg>
