<svg width="18" height="19" viewBox="0 0 18 19" fill="none" xmlns="http://www.w3.org/2000/svg">
<path d="M12.465 7.95509V14.8926C12.465 15.7476 11.775 16.4376 10.92 16.4376H7.06503C6.21003 16.4376 5.52002 15.7476 5.52002 14.8926V7.95509C5.52002 7.10009 6.21003 6.4101 7.06503 6.4101H10.92C11.775 6.4176 12.465 7.10759 12.465 7.95509Z" stroke="#9296A9" stroke-width="1.5" stroke-linecap="round" stroke-linejoin="round"/>
<path d="M6.69043 2.56213V6.41715H11.3179V2.56213H6.69043Z" stroke="#9296A9" stroke-width="1.5" stroke-linecap="round" stroke-linejoin="round"/>
<path d="M8.99999 14.6899C8.36999 14.6899 7.85999 14.1799 7.85999 13.5499C7.85999 12.9199 8.36999 12.4099 8.99999 12.4099C9.62999 12.4099 10.14 12.9199 10.14 13.5499C10.14 14.1799 9.62999 14.6899 8.99999 14.6899ZM9.01499 13.5499L8.99999 13.5649C9.00749 13.5649 9.01499 13.5574 9.01499 13.5499Z" fill="#9296A9"/>
</svg>
