<svg width="9" height="18" viewBox="0 0 9 18" fill="none" xmlns="http://www.w3.org/2000/svg">
<path fill-rule="evenodd" clip-rule="evenodd" d="M0.00128421 15.1503V2.93342C0.337471 -0.319421 4.49877 0.00652081 4.55586 0.0109925C4.55624 0.0110224 4.55644 0.011038 4.55645 0.011038C8.99082 -0.164148 9 2.93342 9 2.93342V5.24891H5.22599L5.24611 3.42469C4.45219 2.71848 3.83567 3.40482 3.83567 3.40482L3.85579 6.46447C3.95458 5.85581 5.88089 5.89553 5.88089 5.89553C8.68168 5.89553 9 7.48315 9 7.48315V15.2478C8.48228 18.4628 4.37166 17.9733 4.37166 17.9733C-0.198093 18.0727 0.00128421 15.1503 0.00128421 15.1503ZM2.96122 15.7391V10.131L2.95757 10.0534H2.84781V9.82579H2.95575V9.61985H3.17892V9.52231H4.17225C4.42654 10.252 5.63028 9.60179 5.63028 9.60179C6.68399 8.89016 7.13769 9.52771 7.13769 9.52771V10.9221C5.91748 10.9221 5.2589 11.2562 5.2589 11.2562V12.7806C4.50154 12.6867 4.17408 13.1111 4.17408 13.1111V16.0281H4.05334V16.1509H3.1478V16.0407H2.84596V15.7391H2.96122Z" fill="#9296A9"/>
<path d="M4.26919 11.7999V12.6578H5.15644V11.4693L5.03206 11.2544H4.82718L4.83268 11.4567C4.83268 11.4567 5.04306 11.4928 5.06867 11.6228L4.99003 11.6969C4.99179 11.6951 4.76494 11.3592 4.26919 11.7999Z" fill="#9296A9"/>
</svg>
