<svg width="46" height="46" viewBox="0 0 46 46" fill="none" xmlns="http://www.w3.org/2000/svg">
<path fill-rule="evenodd" clip-rule="evenodd" d="M13.0019 36.8456V9.3469C13.749 2.02516 22.9967 2.75882 23.1236 2.76888C23.1244 2.76895 23.1249 2.76899 23.1249 2.76899C32.9795 2.37466 32.9999 9.3469 32.9999 9.3469V14.5588H24.6128L24.6575 10.4527C22.8932 8.8631 21.5231 10.408 21.5231 10.408L21.5678 17.2948C21.7873 15.9248 26.0682 16.0142 26.0682 16.0142C32.2925 16.0142 32.9999 19.5878 32.9999 19.5878V37.065C31.8493 44.3015 22.7142 43.1998 22.7142 43.1998C12.5588 43.4234 13.0019 36.8456 13.0019 36.8456ZM19.5798 38.1709V25.5477L19.5717 25.373H19.3278V24.8607H19.5676V24.3972H20.0636V24.1776H22.2711C22.8362 25.8201 25.5113 24.3565 25.5113 24.3565C27.853 22.7547 28.8612 24.1898 28.8612 24.1898V27.3284C26.1495 27.3284 24.686 28.0805 24.686 28.0805V31.5116C23.0029 31.3002 22.2751 32.2556 22.2751 32.2556V38.8213H22.0068V39.0977H19.9944V38.8498H19.3236V38.1709H19.5798Z" fill="white"/>
<path d="M22.4865 29.3042V31.2352H24.4583V28.5602L24.1818 28.0764H23.7265L23.7388 28.5317C23.7388 28.5317 24.2063 28.613 24.2632 28.9057L24.0884 29.0724C24.0924 29.0683 23.5882 28.3122 22.4865 29.3042Z" fill="white"/>
</svg>
