<?xml version="1.0" encoding="UTF-8" standalone="no"?>
<svg
   xmlns:dc="http://purl.org/dc/elements/1.1/"
   xmlns:cc="http://creativecommons.org/ns#"
   xmlns:rdf="http://www.w3.org/1999/02/22-rdf-syntax-ns#"
   xmlns:svg="http://www.w3.org/2000/svg"
   xmlns="http://www.w3.org/2000/svg"
   version="1.1"
   id="svg2"
   viewBox="0 0 908.82099 223.14999"
   height="223.14999"
   width="908.82098">
  <defs
     id="defs4" />
  <metadata
     id="metadata7">
    <rdf:RDF>
      <cc:Work
         rdf:about="">
        <dc:format>image/svg+xml</dc:format>
        <dc:type
           rdf:resource="http://purl.org/dc/dcmitype/StillImage" />
        <dc:title></dc:title>
      </cc:Work>
    </rdf:RDF>
  </metadata>
  <g
     transform="translate(0,-829.21216)"
     id="layer1">
    <path
       id="path4159"
       d="m 230.22689,1021.8078 c -1.34162,-0.1019 -8.54979,-0.4502 -16.01816,-0.774 -12.54162,-0.5437 -13.72948,-0.6929 -15.55055,-1.9533 -3.76772,-2.6075 -16.60078,-13.058 -20.86032,-16.9874 -7.70277,-7.10573 -16.26497,-15.54044 -16.83255,-16.58189 -0.65316,-1.1985 0.84167,-9.70388 4.10729,-23.36988 1.37754,-5.76474 1.63201,-6.27724 4.69323,-9.4523 4.55477,-4.72413 8.59244,-9.7082 9.82417,-12.12687 0.86006,-1.68884 0.93525,-2.51601 0.41575,-4.57369 -3.56613,-14.12491 -3.8943,-15.89964 -3.27789,-17.72641 0.34531,-1.02337 2.19317,-6.66306 4.10634,-12.53263 1.91317,-5.86957 3.7928,-11.00242 4.17696,-11.40633 0.82815,-0.87073 5.76318,-1.45787 32.33984,-3.84758 13.72532,-1.23415 39.53529,-1.96407 56.56218,-1.59962 9.60508,0.20559 17.87737,0.53251 18.38285,0.72648 0.50549,0.19397 2.4417,3.6961 4.3027,7.7825 9.91957,21.7815 17.43798,48.6484 20.76565,74.2057 1.70947,13.12912 1.71294,12.91202 -0.26723,16.7286 -5.13381,9.89494 -16.66035,23.53622 -25.73815,30.46012 l -2.20909,1.685 -17.265,0.8571 c -15.43136,0.7662 -34.9707,0.9943 -41.65802,0.4864 z m 40.55339,-31.29978 c 0.777,-0.49122 0.89648,-2.7626 0.79346,-15.08384 -0.17177,-20.54485 -2.20233,-38.95173 -5.87276,-53.2363 l -0.86007,-3.3472 -16.73129,0.043 c -18.10316,0.0465 -36.13425,1.22052 -37.34527,2.43155 -0.4073,0.4073 -1.35816,3.85905 -2.11303,7.67055 -0.75486,3.81151 -1.622,8.16491 -1.92696,9.67423 -2.0734,10.26162 -5.12206,33.77978 -5.83849,45.03969 -0.32126,5.04908 -0.23229,6.42316 0.44359,6.8512 1.16356,0.73688 68.28298,0.69544 69.45082,-0.0429 l 0,-1e-5 z"
       style="opacity:1;fill:#ffffff;fill-opacity:1;stroke:#000000;stroke-width:0.60982549;stroke-opacity:0" />
    <path
       id="path4161"
       d="M 103.25533,1035.5655 C 100.1809,1030.4973 94.032596,1019.6037 81.431839,996.89834 73.98629,983.48218 66.259375,969.76111 64.260913,966.40707 l -3.633568,-6.09826 -10.333002,0.19743 c -5.683152,0.10859 -10.514796,0.38302 -10.736987,0.60983 -0.966904,0.98703 7.415732,37.67915 14.444172,63.22443 0.553691,2.0124 1.267441,4.7566 1.58611,6.0982 0.318669,1.3417 0.724904,2.9196 0.902745,3.5065 0.542085,1.7892 -2.563452,1.5793 -29.945204,-2.0239 -3.018636,-0.3972 -5.681384,-0.8942 -5.917216,-1.1043 -0.235834,-0.2101 -0.723225,-3.9487 -1.083093,-8.3079 -0.359868,-4.3592 -0.924014,-11.2189 -1.253657,-15.2437 -3.185378,-38.8925 -7.354117,-126.72267 -6.07549,-128.00308 0.301819,-0.30223 1.728468,-0.75154 3.170331,-0.99846 1.441863,-0.24691 9.207684,-1.58688 17.25738,-2.97771 16.220595,-2.80259 16.620226,-2.86512 34.760053,-5.43938 16.836001,-2.38922 25.488497,-3.49367 36.589523,-4.67048 5.03106,-0.53334 11.47997,-1.21935 14.3309,-1.52447 11.39732,-1.21978 25.07129,-2.00472 25.58938,-1.46892 1.89364,1.95835 14.7593,36.30003 18.0276,48.12022 3.77681,13.65923 6.39267,24.40287 6.3903,26.24568 -0.002,1.49318 -6.49624,9.7417 -11.05682,14.0434 l -3.27567,3.08972 -9.14738,0.75393 c -5.03106,0.41466 -12.16602,1.0139 -15.85546,1.33164 -6.31179,0.54358 -16.96544,1.24934 -35.422176,2.34657 -4.389012,0.26092 -8.276851,0.65785 -8.639642,0.88207 -0.391794,0.24214 0.74367,1.71329 2.796507,3.62326 1.900875,1.76857 7.435243,6.90582 12.298601,11.41612 14.33517,13.29448 27.66771,26.11209 51.71377,49.71629 l 11.16038,10.9554 -2.013,0.4321 c -3.3601,0.7212 -21.16151,1.6736 -39.25594,2.1002 l -17.11872,0.4036 -1.26031,-2.0776 z M 53.987326,936.23841 c 4.024848,-0.30513 12.943546,-0.99942 19.819328,-1.54287 6.875782,-0.54346 15.313279,-1.19918 18.749999,-1.45717 3.436715,-0.25798 6.455351,-0.67584 6.708081,-0.92857 0.594707,-0.59471 0.603247,-34.87254 0.0088,-35.46695 -0.782156,-0.78215 -33.152688,-2.64656 -46.425092,-2.6739 l -12.725525,-0.0262 0.375087,4.42124 c 0.206298,2.43168 0.662509,9.63524 1.013801,16.00792 0.351292,6.37267 0.900797,13.0778 1.221123,14.90027 0.320325,1.82247 0.58241,4.22366 0.58241,5.33597 0,2.35964 -0.573501,2.28278 10.671946,1.43027 z"
       style="opacity:1;fill:#ffffff;fill-opacity:1;stroke:#000000;stroke-width:0.60982549;stroke-opacity:0" />
    <path
       id="path4163"
       d="m 340.95519,1022.7933 c -7.85725,-0.2966 -14.64919,-0.6786 -15.09318,-0.849 -0.62457,-0.2396 -0.80726,-2.5824 -0.80726,-10.3525 l 0,-10.0428 3.10751,-6.28919 3.1075,-6.2892 -0.37045,-6.93891 c -0.20375,-3.81639 -0.66193,-8.89319 -1.01819,-11.28177 -1.21861,-8.17053 -3.10135,-18.95925 -3.39011,-19.42646 -0.15868,-0.25676 0.002,-6.57275 0.357,-14.03552 0.97999,-20.59912 1.95497,-42.33484 2.39225,-53.33167 0.21978,-5.52682 0.67478,-10.16339 1.03249,-10.52109 0.35175,-0.35176 2.68326,-0.91543 5.18114,-1.25262 14.62158,-1.97377 19.11848,-2.5462 24.056,-3.0622 3.01864,-0.31547 6.44891,-0.71586 7.62282,-0.88976 5.48389,-0.81238 31.75329,-2.13983 42.34558,-2.13983 l 11.80514,0 7.87739,5.36975 c 15.93571,10.86286 34.33311,26.03991 34.31979,28.31233 -0.006,1.10604 -3.98294,12.75589 -6.19621,18.15308 -3.87781,9.45624 -4.24974,9.95096 -10.71217,14.24836 -3.27555,2.17817 -9.24861,5.66575 -13.27345,7.75016 -4.02485,2.08441 -7.54719,3.99331 -7.82742,4.242 -0.28024,0.2487 2.18955,1.90507 5.48842,3.68085 3.29887,1.77578 8.69909,4.82583 12.00048,6.7779 3.30139,1.95207 6.09248,3.54921 6.20241,3.54921 0.34314,0 10.14488,6.14037 14.77984,9.25892 2.65793,1.78835 4.41525,3.39297 4.40624,4.02337 -0.0605,4.23239 -11.57732,31.58509 -18.69854,44.40959 l -3.42144,6.1616 -9.20922,0.3943 c -15.93373,0.6823 -81.14567,0.9342 -96.06436,0.3711 z m 59.4656,-23.48177 c 1.78371,-0.36765 1.91717,-0.60018 2.55369,-4.44968 2.21196,-13.37741 3.24547,-19.82661 3.82704,-23.88109 0.36083,-2.51553 0.90242,-6.22022 1.20354,-8.23265 0.30113,-2.01242 0.73102,-5.7591 0.95531,-8.32594 l 0.40781,-4.66699 -3.89017,0.85733 c -2.13959,0.47153 -4.98784,1.09879 -6.32946,1.39392 -3.62042,0.7964 -25.00529,5.54325 -29.57654,6.56517 -2.18012,0.48737 -4.8988,1.05191 -6.04151,1.25454 l -2.07765,0.36841 0.41519,19.50088 c 0.22835,10.72549 0.58175,19.77039 0.78533,20.09978 0.39898,0.64559 34.40132,0.21009 37.76742,-0.48368 z m -32.06843,-65.77751 c 5.92073,-1.07862 16.38497,-3.21179 21.03898,-4.28889 14.44288,-3.34256 22.65115,-5.51738 23.17337,-6.13988 0.3354,-0.39981 1.11677,-4.67874 1.73636,-9.50874 0.6196,-4.83 1.3531,-10.15392 1.63001,-11.83094 0.27692,-1.67702 0.31882,-3.23936 0.0931,-3.47186 -0.88446,-0.91113 -23.7906,-4.81334 -38.82936,-6.61483 -3.35404,-0.40178 -7.54761,-0.93206 -9.31904,-1.1784 -1.77144,-0.24634 -3.36498,-0.2146 -3.5412,0.0705 -0.68843,1.11391 -2.85839,42.38742 -2.2798,43.36284 0.36264,0.61136 0.9524,0.57392 6.29757,-0.39984 z"
       style="opacity:1;fill:#ffffff;fill-opacity:1;stroke:#000000;stroke-width:0.60982549;stroke-opacity:0" />
    <path
       id="path4165"
       d="m 477.25652,1026.6896 c -0.6161,-3.7803 -2.12072,-16.9935 -2.83687,-24.9127 l -0.66178,-7.31786 1.82148,-5.18352 c 3.96,-11.26929 5.72434,-17.8861 5.40468,-20.26929 -0.42145,-3.14219 -2.66741,-5.92597 -6.80352,-8.43272 -1.9402,-1.17588 -3.53308,-2.60941 -3.67243,-3.30503 -0.13535,-0.67565 -0.70651,-9.35613 -1.26925,-19.28997 l -1.02317,-18.06153 1.35603,-3.58728 c 2.58988,-6.85135 4.87644,-15.18867 4.88335,-17.80581 0.009,-3.25123 -0.61488,-4.47837 -4.24426,-8.35367 l -2.86375,-3.0578 -0.40638,-14.87835 c -0.57654,-21.10813 -0.5136,-31.00848 0.19865,-31.24778 2.21685,-0.74481 38.39067,2.12999 48.65255,3.86651 l 3.82559,0.64736 -0.32319,1.91021 c -0.51791,3.06112 -2.35473,30.9613 -3.97997,60.45345 -1.28916,23.39351 -3.57673,78.06545 -3.62968,86.74768 l -0.0232,3.8114 25.6848,0 25.6848,0 -0.43327,5.336 c -0.44254,5.45 -1.33257,11.1247 -1.82151,11.6136 -0.37919,0.3792 -9.69418,2.1686 -22.89232,4.3976 -6.90759,1.1665 -8.63281,1.4369 -21.34389,3.3448 -3.52175,0.5286 -8.0497,1.2161 -10.06213,1.5277 -2.01242,0.3117 -6.67758,1.004 -10.36703,1.5385 -3.68944,0.5345 -7.80576,1.2099 -9.14738,1.5009 -1.34162,0.291 -3.98837,0.7153 -5.88168,0.9429 l -3.44238,0.4138 -0.38284,-2.3491 z"
       style="opacity:1;fill:#ffffff;fill-opacity:1;stroke:#000000;stroke-width:0.60982549;stroke-opacity:0" />
    <path
       id="path4167"
       d="m 577.5225,1022.2369 c -5.81742,-0.2785 -6.97523,-0.4917 -6.79148,-1.2504 0.79261,-3.2731 2.51755,-17.6414 2.63557,-21.95377 0.23725,-8.66849 -0.69564,-9.34286 -13.49758,-9.75721 l -9.42085,-0.30491 -1.01208,-5.18352 c -1.04361,-5.34503 -2.49354,-16.61947 -3.64679,-28.35688 -0.3625,-3.68945 -0.81341,-16.72447 -1.00202,-28.96671 l -0.34293,-22.25863 1.96452,-5.79334 c 2.15411,-6.35247 9.49114,-22.02342 11.37923,-24.30459 0.98639,-1.19174 2.06617,-1.53182 6.34522,-1.99848 28.45547,-3.10324 72.80517,-2.88435 96.23125,0.47495 4.19729,0.6019 9.99261,8.9063 13.77959,19.74546 0.85814,2.45619 1.56026,4.64289 1.56026,4.85932 0,0.21644 -3.39661,2.13273 -7.54802,4.25843 -7.8936,4.04185 -9.5271,5.57295 -9.5271,8.92985 0,1.40993 1.90846,3.61491 10.73882,12.40734 l 10.7388,10.69268 -0.36019,12.19651 c -0.41805,14.15579 -1.78429,26.0148 -4.42613,38.41901 -0.79346,3.72555 -1.46711,4.99858 -5.29373,10.00377 -5.5732,7.28972 -5.86146,7.80992 -5.88753,10.62472 -0.0168,1.814 0.39997,2.7554 1.87133,4.2267 1.77314,1.7732 1.84974,2.0307 1.21036,4.0694 -0.37542,1.1971 -1.43306,3.6858 -2.35031,5.5306 l -1.66773,3.354 -12.50142,0.3733 c -15.15717,0.4526 -63.45731,0.4278 -73.17906,-0.038 l 0,0 z m 62.37225,-31.89418 c 0.7939,-0.59742 1.30377,-3.4 2.35761,-12.95879 1.16939,-10.60707 1.34144,-15.41514 1.32015,-36.89445 -0.021,-21.22802 -0.18597,-25.68321 -1.17386,-31.71092 l -1.14938,-7.01299 -3.35404,-0.39706 c -4.26429,-0.50482 -47.07054,-0.49229 -52.74991,0.0154 l -4.26878,0.38162 -0.74327,4.57369 c -1.75529,10.80098 -0.79239,51.72049 1.62873,69.21519 1.64445,11.88256 2.03271,14.08605 2.60572,14.78827 0.48058,0.58894 6.74953,0.76228 27.56804,0.76228 20.61,0 27.1842,-0.17924 27.95899,-0.76228 z"
       style="opacity:1;fill:#ffffff;fill-opacity:1;stroke:#000000;stroke-width:0.60982549;stroke-opacity:0" />
    <path
       id="path4169"
       d="m 821.47624,1026.8847 c -22.21456,-14.8926 -38.17947,-26.1219 -55.06771,-38.73327 -4.11272,-3.0712 -7.79116,-5.57669 -8.17429,-5.56777 -1.42544,0.0332 -19.38645,26.78614 -26.05127,38.80344 -2.90858,5.2444 -3.22702,5.6976 -4.00359,5.6976 -2.18874,0 -22.02101,-8.873 -30.09974,-13.4666 -4.99801,-2.842 -16.27493,-10.2672 -17.09649,-11.2571 -0.58015,-0.699 0.66116,-2.58408 6.50036,-9.87142 7.86615,-9.81698 20.30655,-24.75258 27.80091,-33.37701 2.61192,-3.00576 4.74894,-5.79496 4.74894,-6.1982 0,-0.40326 -1.84965,-2.19753 -4.11033,-3.98728 -3.81792,-3.02259 -25.87305,-21.60568 -30.61299,-25.7937 -6.4758,-5.72178 -11.33918,-10.35702 -11.48748,-10.94863 -0.50259,-2.00493 23.81756,-11.9898 45.42657,-18.65031 l 2.56981,-0.79208 2.90964,3.29195 c 6.51226,7.36793 11.10139,12.12665 19.28204,19.99459 l 5.3193,5.11596 15.08071,-14.88003 c 21.87189,-21.58085 44.55591,-41.40504 47.35443,-41.38435 4.11017,0.0304 37.49056,9.69215 45.17412,13.0754 1.00621,0.44305 2.44692,0.99178 3.20158,1.2194 0.75466,0.22761 1.37211,0.6431 1.37211,0.92331 0,0.28021 -2.40119,2.22534 -5.33597,4.32252 -12.25955,8.76057 -28.19328,21.68105 -38.26292,31.02695 -13.94775,12.94527 -31.40964,31.12258 -31.40964,32.69649 0,2.54241 39.7687,23.75502 63.72676,33.99183 2.68323,1.14649 6.46466,2.81018 8.40318,3.69709 1.9385,0.88691 3.68077,1.61257 3.8717,1.61257 0.19092,0 1.21187,0.39926 2.26877,0.88726 1.0569,0.48798 6.03617,2.54078 11.06504,4.56176 5.02888,2.02099 9.22399,3.91625 9.32247,4.2117 0.21031,0.6309 -11.43062,11.63473 -22.1841,20.97003 -7.36452,6.3932 -24.12776,19.3749 -25.01885,19.3749 -0.39636,0 -7.81375,-4.7551 -16.48307,-10.567 z"
       style="opacity:1;fill:#ffffff;fill-opacity:1;stroke:#000000;stroke-width:0.60982549;stroke-opacity:0" />
    <path
       id="path4171"
       d="m 196.92328,861.69509 c -0.75038,-0.90416 -4.41651,-12.92045 -4.41651,-14.4758 0,-0.86065 1.31494,-1.19502 8.08019,-2.05463 17.0907,-2.17159 23.61473,-2.68554 44.05989,-3.47093 13.46011,-0.51706 37.67595,-0.0276 38.48137,0.77786 0.43993,0.43993 -1.71487,14.13104 -2.34965,14.92917 -0.46118,0.57985 -5.14925,0.7663 -19.58865,0.77908 -19.80124,0.0175 -53.86464,2.19422 -62.03036,3.96383 -0.93681,0.20302 -1.84703,0.0204 -2.23628,-0.44858 z"
       style="opacity:1;fill:#ffffff;fill-opacity:1;stroke:#000000;stroke-width:0.60982549;stroke-opacity:0" />
    <path
       id="path4193"
       d="m 833.47599,1051.0244 c -26.90043,-17.6297 -42.09442,-28.2493 -69.74848,-48.7495 -2.91966,-2.1644 -3.74713,-2.51895 -4.47277,-1.9167 -1.09969,0.9126 -10.4446,15.1389 -13.06429,19.8884 -1.05695,1.9162 -2.38746,4.1701 -2.95674,5.0086 -0.56927,0.8385 -2.47278,4.2688 -4.23005,7.6228 -3.53485,6.7469 -5.40037,8.8446 -7.85992,8.8383 -5.43702,-0.014 -31.58536,-11.6248 -46.44784,-20.6244 -2.84143,-1.7205 -5.33214,-2.9284 -5.53502,-2.684 -0.20283,0.2443 -1.41571,3.0512 -2.69525,6.2375 -2.42204,6.0313 -3.83147,8.0982 -6.45263,9.4625 -2.77763,1.4457 -50.87365,2.3253 -82.16768,1.5028 -29.14038,-0.766 -28.47132,-0.6682 -31.74203,-4.6362 -1.62822,-1.9753 -2.07573,-2.1918 -3.8663,-1.8701 -1.11371,0.2 -3.67146,0.665 -5.68389,1.0334 -10.1704,1.8614 -32.86455,5.6849 -41.46813,6.9864 -3.68944,0.5582 -7.94298,1.2634 -9.45229,1.5672 -1.50932,0.3038 -4.11633,0.7138 -5.79335,0.9109 -1.67702,0.1972 -4.28402,0.597 -5.79334,0.8885 -9.38637,1.8126 -11.95024,1.9982 -13.8726,1.0041 -2.77192,-1.4334 -3.31998,-3.7092 -4.82883,-20.0511 -0.22141,-2.3981 -0.66132,-4.1045 -1.05389,-4.088 -0.37061,0.015 -2.04594,2.8114 -3.72296,6.213 -3.34193,6.7786 -5.10318,9.227 -7.543,10.4857 -3.05832,1.5778 -37.3351,2.3769 -82.71117,1.9282 -22.80747,-0.2255 -44.30773,-0.6047 -47.77835,-0.8426 -6.05453,-0.415 -6.36945,-0.5067 -7.77224,-2.2621 -1.33816,-1.6744 -1.46229,-2.3849 -1.46506,-8.3851 -0.002,-3.6055 -0.12925,-6.5556 -0.28351,-6.5556 -0.15426,0 -1.59498,1.4153 -3.20159,3.145 -4.09594,4.4099 -13.41608,12.0868 -16.00146,13.1803 -1.85643,0.7852 -8.73247,0.9256 -48.2071,0.9846 -53.52826,0.08 -47.20479,0.9292 -58.03491,-7.7928 -13.04653,-10.507 -36.1691,-32.57799 -39.00904,-37.23503 -1.55138,-2.54401 -1.42814,-5.2915 0.69647,-15.52693 1.00349,-4.83436 1.82453,-9.05042 1.82453,-9.36901 0,-0.34851 -2.48996,-0.45436 -6.25071,-0.26571 -3.4379,0.17245 -12.97242,0.63905 -21.18784,1.0369 -8.21541,0.39785 -15.26734,0.90816 -15.67095,1.13403 -0.45575,0.25505 3.23076,3.87466 9.72831,9.55176 20.65824,18.0497 43.1124,38.50989 65.85439,60.00649 4.72411,4.4654 4.62802,7.3273 -0.27498,8.1896 -10.28092,1.8083 -34.18183,3.8365 -55.86809,4.7409 -24.73237,1.0313 -32.195421,0.4152 -34.904846,-2.8817 -0.520412,-0.6332 -2.5745,-4.7188 -4.564641,-9.079 -1.990135,-4.3603 -9.268841,-19.3163 -16.174895,-33.2355 -6.906054,-13.91931 -13.736214,-27.70899 -15.178128,-30.64377 -2.370379,-4.82453 -2.786293,-5.33597 -4.339255,-5.33597 -0.944676,0 -1.873124,0.25165 -2.063218,0.55923 -0.502087,0.8124 1.088225,7.09144 7.967113,31.45661 2.177937,7.7143 4.191147,14.712 4.473801,15.5505 0.282655,0.8386 0.986381,3.1711 1.563837,5.1836 1.423875,4.9621 3.766788,12.518 5.483734,17.6849 2.060478,6.2007 2.138103,7.8585 0.411254,8.7827 -1.587565,0.8496 -25.410415,-1.0094 -41.579811,-3.2447 -3.521742,-0.4868 -8.598539,-1.188 -11.281771,-1.5582 -9.0432572,-1.2476 -9.7270795,-1.9965 -10.3163655,-11.2977 -0.2124979,-3.354 -0.651815,-10.2146 -0.9762598,-15.2456 -0.5988712,-9.2865 -1.8793904,-32.86156 -3.047386,-56.10399 -1.1423764,-22.73261 -2.40794545,-59.99284 -2.53200025,-74.54583 -0.12018831,-14.0994 -0.113394,-14.18101 1.30660275,-15.69252 1.5854087,-1.68759 2.3041403,-1.98668 6.5432052,-2.72289 3.0319566,-0.52656 14.0680426,-2.62471 19.3892366,-3.68623 5.684573,-1.134 17.71379,-3.18958 26.527409,-4.53306 14.808416,-2.25728 25.729177,-3.76704 35.674791,-4.93194 14.939523,-1.74981 18.312123,-2.10511 28.966713,-3.05154 5.86957,-0.52138 13.55337,-1.21448 17.07511,-1.54023 8.98738,-0.83128 11.69947,-0.74697 13.35883,0.41529 2.09393,1.46665 10.24398,19.38797 15.48976,34.06077 3.5197,9.84479 4.47263,12.19651 4.94218,12.19651 0.27247,0 1.0255,-1.50932 1.67339,-3.35404 3.20712,-9.13157 3.52762,-9.29624 23.07909,-11.85786 7.84111,-1.02733 20.72681,-2.34293 34.45514,-3.51779 12.43834,-1.06446 62.69422,-1.05786 67.40984,0.009 5.7529,1.30135 6.73212,2.75876 14.01249,20.85522 1.95657,4.86336 3.75808,9.64995 4.00335,10.63688 0.40821,1.6426 0.48554,1.68738 0.91393,0.52931 0.2574,-0.69581 0.77041,-7.26615 1.14002,-14.60075 0.36962,-7.3346 0.93088,-16.76591 1.24724,-20.95846 0.31636,-4.19255 0.58361,-8.23593 0.59388,-8.9853 0.0103,-0.74937 0.77334,-2.17901 1.6957,-3.17699 1.8031,-1.95091 0.81281,-1.72744 17.8374,-4.02512 23.19624,-3.13061 62.41582,-5.58994 80.77079,-5.06486 l 7.45618,0.21329 3.60536,2.38533 c 7.13851,4.72289 23.91883,17.99506 24.54269,19.41171 0.11181,0.25388 0.49356,0.46159 0.84835,0.46159 0.4497,0 0.50994,-6.36958 0.19891,-21.0307 l -0.44616,-21.0307 1.83775,-1.83775 c 1.54356,-1.54356 2.30897,-1.8351 4.78133,-1.82115 7.17825,0.0405 29.39618,1.79041 38.31346,3.01762 29.43037,4.05027 30.45578,4.28836 31.2063,7.24588 0.41548,1.63723 -0.14411,13.5675 -1.0195,21.73573 -0.32351,3.01864 -1.01005,11.5257 -1.52565,18.90459 -0.51559,7.37889 -1.21174,16.84643 -1.547,21.03898 -1.24603,15.58228 -3.90324,60.36449 -4.58751,77.31363 l -0.42543,10.53774 8.1589,-0.17071 c 5.5782,-0.11671 8.11948,-0.38541 8.03427,-0.8495 -3.73995,-20.36977 -5.55591,-42.07632 -5.81025,-69.45113 -0.11526,-12.40561 0.0485,-17.65881 0.59876,-19.20951 0.41657,-1.17391 1.61896,-4.74139 2.67198,-7.92773 4.19487,-12.69321 12.38025,-28.46293 15.96357,-30.75495 1.472,-0.94154 10.31154,-2.26151 24.81466,-3.70548 19.53422,-1.94487 56.87464,-1.78325 74.52299,0.32257 17.40979,2.07735 19.23219,2.46945 21.89627,4.71117 5.30658,4.46515 12.52222,16.77702 15.21905,25.96781 0.9906,3.37595 1.33229,3.42391 7.27766,1.02164 11.17298,-4.51453 26.2392,-9.15101 29.72125,-9.14641 2.80672,0.004 3.78573,0.81366 10.68457,8.83944 6.57959,7.65435 13.53794,14.54522 14.39029,14.2507 0.35773,-0.1236 4.02278,-3.51777 8.14465,-7.54262 14.33925,-14.00182 22.2071,-21.16304 35.34792,-32.1731 14.32261,-12.00022 13.74779,-11.74046 22.36846,-10.10833 16.89314,3.19836 37.66356,9.69457 52.22838,16.33509 18.65158,8.5038 19.91898,9.9802 12.47392,14.53107 -20.16875,12.32835 -42.50203,29.50093 -61.25995,47.10433 -11.34782,10.64934 -13.61369,12.97217 -13.3428,13.67811 0.39089,1.01868 6.72991,4.43839 24.31965,13.11978 12.10687,5.97533 39.69068,18.31493 40.94094,18.31493 0.18856,0 1.20758,0.37436 2.26453,0.83191 1.05689,0.45755 3.01931,1.25064 4.36092,1.76241 1.34162,0.51177 4.22304,1.62347 6.40317,2.47042 2.18013,0.84696 7.11971,2.68362 10.97686,4.08147 10.6334,3.85361 11.82891,4.32681 12.65388,5.00879 1.84655,1.52649 0.73453,3.50702 -6.16156,10.97386 -15.78149,17.0876 -35.02484,33.7351 -52.12312,45.0918 -7.65447,5.0842 -8.30979,5.3958 -11.28177,5.3657 -1.84674,-0.019 -3.78751,-0.4463 -4.67981,-1.0311 z m -702.59318,-13.8778 c 16.08227,-0.4173 30.70702,-1.445 31.48024,-2.2121 0.40503,-0.4018 -2.05256,-3.1866 -7.31791,-8.2924 -4.36025,-4.2281 -13.14174,-12.8004 -19.51441,-19.0494 -11.05338,-10.83897 -23.55357,-22.73145 -41.925504,-39.8873 -4.611805,-4.30654 -8.3851,-8.04596 -8.3851,-8.30983 0,-0.26387 2.675609,-0.6529 5.945798,-0.86452 44.103806,-2.85398 61.827446,-4.30034 63.470316,-5.17958 1.51735,-0.81205 7.95929,-7.82879 11.45986,-12.48239 2.38682,-3.17299 2.65158,-3.83776 2.30734,-5.79335 -0.66763,-3.79271 -5.57111,-22.66437 -7.46669,-28.73647 -5.49142,-17.59065 -15.79755,-44.11185 -17.36119,-44.67633 -1.60142,-0.57812 -39.52973,2.97444 -57.745609,5.40876 -12.084613,1.61495 -28.109198,3.88595 -34.45514,4.88297 -12.699794,1.9953 -37.425599,6.25941 -38.904648,6.70934 -1.213392,0.36912 -1.232199,-2.66843 0.21288,34.38334 1.813679,46.50267 6.434735,116.45046 7.783237,117.81296 0.953595,0.9635 34.085774,4.9467 35.882506,4.3138 0.490773,-0.1728 0.07102,-2.5993 -1.38046,-7.9803 -7.249083,-26.8737 -16.064234,-64.98458 -15.225201,-65.82361 0.130411,-0.13041 4.859051,-0.38572 10.508089,-0.56736 l 10.270979,-0.33024 0.87016,1.44267 c 2.223198,3.68596 13.771805,24.1356 24.577583,43.52064 12.894303,23.1318 15.888684,28.3732 17.680974,30.949 l 1.16712,1.6773 6.81879,-0.2966 c 3.75033,-0.163 12.41103,-0.4416 19.24599,-0.619 z m 714.86836,-4.9644 c 9.66665,-7.3459 14.31639,-11.1983 24.07548,-19.9468 11.11426,-9.9633 15.89517,-14.87502 15.15484,-15.56954 -0.32181,-0.30187 -6.0735,-2.78682 -12.78158,-5.52211 -23.7971,-9.70352 -44.69929,-19.38679 -62.50711,-28.95741 -10.10981,-5.43341 -21.58697,-12.28748 -22.58098,-13.48525 -0.89187,-1.07459 5.10466,-7.73481 21.12972,-23.46836 15.8504,-15.56214 31.85515,-29.07283 47.9757,-40.49968 4.79,-3.39532 5.80822,-4.374 5.17907,-4.97805 -2.75471,-2.64488 -48.65633,-16.27885 -50.71687,-15.06424 -1.41797,0.83581 -11.89703,9.39221 -17.75684,14.49885 -7.79979,6.79725 -20.42373,18.65552 -33.36776,31.34393 l -10.19445,9.99307 -4.13645,-3.66931 c -4.50021,-3.99194 -12.07308,-11.76146 -18.72274,-19.20885 -2.32051,-2.59894 -4.67492,-4.72535 -5.23206,-4.72535 -1.2205,0 -19.95733,6.28697 -28.05301,9.41292 -6.9489,2.68315 -20.12424,8.9066 -20.12424,9.5058 0,0.94884 15.75118,14.84594 35.85634,31.63563 9.82014,8.20072 11.06479,9.43975 10.3774,10.33063 -0.42956,0.55677 -3.6789,4.44257 -7.22076,8.63512 -13.19614,15.6205 -16.06177,19.08192 -23.78588,28.73145 -4.35007,5.43441 -7.90919,10.22105 -7.90919,10.63695 0,1.17 15.21411,10.8261 24.45229,15.5194 9.32509,4.7375 21.18632,9.7537 23.0633,9.7537 0.68331,0 1.61463,-0.6174 2.06962,-1.3721 0.45505,-0.7547 2.84179,-4.8024 5.30396,-8.9949 6.14448,-10.4628 18.6828,-29.20213 22.56049,-33.71798 0.22783,-0.26536 5.74047,3.40808 12.2503,8.16319 27.10089,19.79599 65.82981,46.26649 67.71368,46.28109 0.5464,0 4.11388,-2.3636 7.92773,-5.2618 z m -347.37428,-6.0406 c 38.22795,-5.7065 60.85587,-9.6044 62.27196,-10.7268 0.67832,-0.5377 1.6817,-5.9707 2.43419,-13.1805 l 0.3978,-3.8114 -25.03174,0 c -13.76745,0 -25.3972,-0.13957 -25.84389,-0.31016 -0.57757,-0.22058 -0.77343,-1.40957 -0.67806,-4.11633 0.0737,-2.09338 0.41893,-11.90158 0.76708,-21.796 1.3731,-39.02414 3.43597,-78.31891 5.90019,-112.39025 0.59565,-8.23575 0.78159,-14.1173 0.45614,-14.42806 -1.1661,-1.11344 -31.43875,-4.06205 -45.3716,-4.41928 l -7.01299,-0.1798 0.14289,23.13786 0.1429,23.13787 2.08452,2.16989 c 3.20691,3.33823 5.2525,6.72998 5.2525,8.70901 0,2.45347 -2.07284,10.37423 -4.39276,16.78564 l -1.92055,5.30768 1.0908,18.59063 c 0.59995,10.22484 1.21672,18.91876 1.37062,19.31981 0.15391,0.40106 2.02083,1.85513 4.14873,3.23127 5.30317,3.42963 6.81342,6.42071 5.79092,11.46896 -0.39243,1.93745 -2.08475,7.63896 -3.76073,12.67002 -3.46864,10.41244 -3.40867,8.70727 -1.04025,29.57654 1.12363,9.9007 1.61557,13.1461 2.13681,14.0963 0.11322,0.2064 2.47646,-6e-4 5.25166,-0.46 2.77521,-0.4594 9.71099,-1.5317 15.41286,-2.3829 z m -55.53348,-3.8049 c 3.54926,-0.4271 3.65444,-0.4947 5.41383,-3.4846 2.10949,-3.5849 6.80589,-12.8581 9.57418,-18.90463 4.55032,-9.93885 10.96893,-26.91527 10.96893,-29.01142 0,-1.08925 -15.71723,-10.94771 -32.01583,-20.08158 -10.4336,-5.84706 -10.7658,-6.06082 -10.38263,-6.6808 0.1805,-0.29206 3.55091,-2.22818 7.4898,-4.30249 3.93888,-2.07431 9.82905,-5.55287 13.08927,-7.73012 5.16376,-3.44849 6.11908,-4.3641 7.41309,-7.10494 3.33429,-7.06242 5.81464,-13.66905 9.2568,-24.6563 0.72396,-2.31086 -16.58614,-16.99903 -33.92315,-28.78488 l -8.09665,-5.50416 -13.77756,0 c -13.47088,0 -27.13612,0.63235 -39.36943,1.8218 -17.96107,1.74637 -37.36048,4.49856 -38.29481,5.43289 -0.58604,0.58604 -1.41836,15.28995 -3.45921,61.11127 -0.49868,11.19654 -0.5297,16.96166 -0.10007,18.59967 1.16236,4.43167 3.66983,22.46753 4.06042,29.20612 l 0.38883,6.70808 -3.09884,6.2892 -3.09884,6.28919 0,9.9877 c 0,6.7779 0.22188,10.1247 0.69043,10.4143 1.63741,1.012 22.20844,1.3513 66.39037,1.0951 25.99381,-0.1507 48.89029,-0.4699 50.88107,-0.7094 z m 209.45404,0.077 11.112,-0.4025 1.27716,-2.4942 c 0.70245,-1.3718 1.75922,-3.8575 2.34837,-5.5238 l 1.07116,-3.0297 -1.77593,-2.0226 c -1.34022,-1.5264 -1.77588,-2.6326 -1.77588,-4.5091 0,-2.1425 0.65856,-3.3835 4.76213,-8.97368 4.82128,-6.56792 5.8056,-8.42967 6.49269,-12.28062 2.78001,-15.58113 4.60065,-33.02329 4.60065,-44.07519 l 0,-5.58266 -10.67195,-10.73186 c -9.90722,-9.96286 -10.67194,-10.89112 -10.67194,-12.95426 0,-2.76842 1.54487,-4.0937 10.06212,-8.63181 3.5626,-1.89819 6.18558,-3.6885 6.30821,-4.30565 0.61867,-3.11299 -6.23375,-17.00482 -10.56699,-21.42216 l -3.05913,-3.11852 -7.31791,-0.71373 c -13.06423,-1.27417 -27.11162,-1.88069 -43.68734,-1.88625 -24.39901,-0.008 -49.27365,1.61359 -52.15071,3.40012 -1.73554,1.07769 -8.54812,14.60197 -11.80076,23.42675 l -2.58485,7.01299 0.36643,23.17337 c 0.40536,25.63508 1.94572,44.28403 4.83554,58.54325 l 0.74154,3.65895 8.23264,0.43824 c 10.66415,0.56768 11.89666,0.81766 13.38974,2.7158 1.53497,1.95141 1.65517,7.63779 0.36517,17.27512 -0.47141,3.5217 -1.04848,7.8306 -1.28239,9.5752 l -0.42529,3.172 4.19096,0.215 c 8.03294,0.4122 66.58441,0.451 77.61456,0.051 z m -378.67433,-0.9235 15.51746,-0.7366 3.38713,-2.7091 c 9.18811,-7.3488 18.87725,-18.8673 24.52066,-29.15035 1.83959,-3.35198 1.88769,-3.63132 1.49936,-8.70619 -1.85852,-24.28808 -10.38221,-57.31499 -20.83444,-80.7277 -4.73695,-10.61064 -4.03233,-9.93713 -10.9013,-10.41997 -8.62235,-0.60609 -39.10217,-0.48712 -53.09936,0.20725 -21.47264,1.06522 -47.59312,3.72652 -48.77574,4.96954 -1.45855,1.53305 -9.0308,25.42643 -8.632,27.23732 0.20049,0.91041 1.16805,5.06554 2.15013,9.23361 1.28555,5.45608 1.63033,7.98671 1.23116,9.0366 -0.78687,2.06964 -3.16259,5.16095 -8.62215,11.21921 -4.70279,5.21852 -4.76435,5.32998 -6.23093,11.28178 -0.81467,3.30614 -2.05945,9.02981 -2.76618,12.71925 -0.70674,3.68945 -1.43391,7.47478 -1.61595,8.41185 -0.29206,1.50346 0.33859,2.38988 5.36425,7.53979 8.69231,8.90722 22.87097,21.17561 32.66327,28.26271 1.82427,1.3203 2.91765,1.4745 15.24563,2.1495 18.14583,0.9937 41.31318,1.0639 59.899,0.1815 z m 424.381,-61.6264 5.09283,-6.15234 -4.1781,-3.83649 c -2.298,-2.11006 -4.45257,-3.76032 -4.78798,-3.66723 -0.3354,0.0931 -0.67136,1.10859 -0.74655,2.25667 -0.29692,4.53416 -1.50511,16.17348 -1.78294,17.17677 -0.57483,2.07563 1.3096,0.37528 6.40274,-5.77738 z m -239.183,-11.22656 c -0.21329,-1.55613 -0.3878,-4.71198 -0.3878,-7.01299 0,-2.47931 -0.25736,-4.18366 -0.63174,-4.18366 -1.084,0 -11.56542,6.35685 -11.55278,7.00662 0.0112,0.57424 11.22853,6.87263 12.41987,6.97358 0.29714,0.0252 0.36574,-1.22742 0.15245,-2.78355 z"
       style="opacity:1;fill:#e2231a;fill-opacity:1;stroke:#000000;stroke-width:0.60982549;stroke-opacity:0" />
    <path
       id="path4197"
       d="m 44.175609,936.34247 c -0.924595,-0.62674 -1.826236,-10.84625 -3.454158,-39.1506 l -0.157834,-2.74421 5.793343,-0.18423 c 5.742805,-0.18262 41.165227,1.42434 48.786038,2.21321 l 3.963866,0.41032 0.162144,17.33985 c 0.08918,9.53692 -0.04803,17.54298 -0.304913,17.79125 -0.416062,0.40211 -15.779343,1.76338 -40.715538,3.60761 -4.695657,0.34728 -9.641393,0.74663 -10.990526,0.88745 -1.349132,0.14082 -2.736223,0.064 -3.082422,-0.17065 z m 27.184195,-11.77683 c 3.857147,-0.3471 9.208365,-0.81674 11.891597,-1.04364 l 4.878604,-0.41254 0.304913,-8.44768 c 0.167702,-4.64622 0.167702,-8.64665 0,-8.88983 -0.821885,-1.1918 -36.157029,-2.55159 -36.760181,-1.41463 -0.267873,0.50495 1.221303,17.92044 1.723385,20.1545 0.307216,1.36699 0.449279,1.39331 5.631928,1.04363 2.924219,-0.19729 8.472608,-0.64271 12.329754,-0.98981 z"
       style="opacity:1;fill:#e2231a;fill-opacity:1;stroke:#000000;stroke-width:0.60982549;stroke-opacity:0" />
    <path
       id="path4199"
       d="m 206.4548,990.6493 c -2.83456,-0.12262 -5.04366,-0.50748 -5.30076,-0.92347 -0.73343,-1.18673 0.98757,-19.25557 3.4989,-36.73492 1.76501,-12.28483 5.39957,-30.69261 6.22267,-31.51572 1.05496,-1.05496 21.51028,-2.31196 37.76745,-2.32085 l 15.98441,-0.009 0.7022,2.59175 c 3.82602,14.12153 6.29788,38.30522 5.93708,58.08588 l -0.1891,10.36703 -7.92773,0.38785 c -8.13166,0.39782 -47.98816,0.44787 -56.69512,0.0712 z m 53.34546,-10.82878 c 1.46925,-0.90805 0.37792,-25.7207 -1.85059,-42.07525 -1.17229,-8.60317 0.29742,-7.62362 -11.42911,-7.61747 -9.62309,0.005 -26.8982,0.93606 -27.44102,1.47889 -0.92066,0.92066 -4.25879,21.59546 -5.94819,36.84032 -1.16582,10.52012 -1.15202,11.51504 0.16533,11.91875 1.45024,0.44443 45.74251,-0.0749 46.50358,-0.54524 z"
       style="opacity:1;fill:#e2231a;fill-opacity:1;stroke:#000000;stroke-width:0.60982549;stroke-opacity:0" />
    <path
       id="path4207"
       d="m 190.44762,872.1772 c -2.17907,-0.87688 -5.92867,-11.11855 -8.47963,-23.16131 -1.74449,-8.23553 -0.72296,-10.41886 5.40299,-11.54781 21.4798,-3.95852 37.95397,-5.51315 62.99905,-5.94509 19.12813,-0.32989 37.53787,0.34603 42.10087,1.54575 1.14828,0.30192 2.1985,1.23672 2.95886,2.63369 1.10105,2.02291 1.12625,2.52298 0.38232,7.58699 -1.45075,9.87544 -3.68182,20.63895 -4.68726,22.61311 -0.54515,1.07038 -1.43688,2.13198 -1.98161,2.35911 -0.54475,0.22714 -12.79057,0.49171 -27.21294,0.58794 -25.21694,0.16825 -44.52938,1.2147 -61.28746,3.32089 -5.65267,0.71044 -8.44188,0.71228 -10.19519,0.007 z m 18.42783,-10.9725 c 17.71275,-1.82664 41.48714,-3.04166 59.51623,-3.04166 l 12.61587,0 0.35221,-1.4033 c 1.15561,-4.60432 2.19596,-14.0897 1.58664,-14.46628 -1.91778,-1.18525 -26.95691,-1.51214 -45.10424,-0.58885 -19.72937,1.00378 -44.05842,3.55915 -45.25228,4.75302 -0.55351,0.5535 1.79309,9.89834 3.52863,14.05208 l 0.87368,2.09101 3.19742,-0.41501 c 1.75857,-0.22826 5.6672,-0.66972 8.68584,-0.98101 z"
       style="opacity:1;fill:#e2231a;fill-opacity:1;stroke:#000000;stroke-width:0.60982549;stroke-opacity:0" />
    <path
       id="path4209"
       d="m 362.24656,929.2269 c 0,-7.58242 1.88601,-37.79392 2.39191,-38.31533 0.60314,-0.62164 17.3796,1.4397 33.89271,4.16442 15.00251,2.47547 17.38002,3.06426 17.38002,4.30416 0,2.18332 -3.16645,23.16179 -3.55577,23.55777 -1.32583,1.34852 -43.42543,10.83066 -48.12694,10.83968 l -1.98193,0.004 0,-4.5545 z m 21.95372,-7.96968 c 9.4517,-1.53741 19.54051,-3.72327 20.1921,-4.37487 0.60999,-0.60998 1.92369,-10.58429 1.45568,-11.0523 -0.15334,-0.15334 -1.58795,-0.5009 -3.18802,-0.77235 -22.64129,-3.8411 -28.65605,-4.62155 -29.45557,-3.82203 -0.33284,0.33285 -0.91238,5.21496 -1.28786,10.84913 -0.76796,11.52352 -0.78918,11.45561 3.33991,10.68692 1.39732,-0.26013 5.42201,-0.94166 8.94376,-1.5145 z"
       style="opacity:1;fill:#e2231a;fill-opacity:1;stroke:#000000;stroke-width:0.60982549;stroke-opacity:0" />
    <path
       id="path4211"
       d="m 362.62571,995.2845 c -0.19061,-2.46643 -0.51542,-11.27563 -0.72178,-19.57601 -0.30631,-12.3205 -0.22532,-15.13786 0.44108,-15.34353 2.69518,-0.83183 46.3886,-10.18123 46.59876,-9.97107 0.80736,0.80736 -6.2342,47.4077 -7.32905,48.50295 -0.24236,0.24244 -9.03605,0.53784 -19.54154,0.65644 l -19.10089,0.21564 -0.34658,-4.48442 z m 30.46946,-6.11722 c 0.72623,-0.73743 1.51722,-5.46785 3.37742,-20.1983 0.37269,-2.95119 0.56078,-5.48264 0.41798,-5.62544 -0.14279,-0.1428 -2.30187,0.12998 -4.79794,0.60617 -2.49607,0.47619 -7.96858,1.46492 -12.16113,2.19717 -9.71452,1.69668 -9.80397,1.74402 -9.44911,5.00051 0.15448,1.41767 0.45307,6.39168 0.66354,11.05336 l 0.38267,8.47578 10.38616,-0.35137 c 7.41423,-0.25083 10.61343,-0.58215 11.18041,-1.15788 z"
       style="opacity:1;fill:#e2231a;fill-opacity:1;stroke:#000000;stroke-width:0.60982549;stroke-opacity:0" />
    <path
       id="path4213"
       d="m 588.92314,990.69162 c -3.56956,-0.21833 -4.21901,-0.43916 -4.69668,-1.59701 -0.61008,-1.47881 -2.13138,-12.12024 -3.02547,-21.16298 -2.36079,-23.87679 -2.2215,-63.25829 0.23243,-65.71454 0.67574,-0.67637 57.81697,-0.86164 58.85879,-0.19084 0.51047,0.32868 1.23894,2.69749 1.73488,5.64138 1.1968,7.10426 1.71132,47.71453 0.76352,60.264 -0.90212,11.94477 -2.17427,21.29846 -3.01042,22.13462 -0.65101,0.651 -42.10386,1.16073 -50.85705,0.62537 z m 42.07902,-15.13717 c 1.94999,-11.29004 2.82306,-38.27361 1.77099,-54.73569 -0.49361,-7.72358 -0.50869,-7.78231 -2.11255,-8.22552 -0.88846,-0.24552 -10.05671,-0.43302 -20.37388,-0.41667 -14.0958,0.0223 -18.94639,0.21797 -19.51442,0.78706 -1.25672,1.25906 -0.98871,39.18323 0.37337,52.83361 0.60243,6.03727 1.33515,11.57586 1.62827,12.30796 0.71187,1.77793 1.54333,1.84823 21.02563,1.77766 l 16.46529,-0.0596 0.7373,-4.26878 0,10e-6 z"
       style="opacity:1;fill:#e2231a;fill-opacity:1;stroke:#000000;stroke-width:0.60982549;stroke-opacity:0" />
  </g>
</svg>
