<svg width="18" height="19" viewBox="0 0 18 19" fill="none" xmlns="http://www.w3.org/2000/svg">
<path d="M12.465 7.95516V14.8926C12.465 15.7476 11.775 16.4376 10.92 16.4376H7.065C6.21 16.4376 5.51999 15.7476 5.51999 14.8926V7.95516C5.51999 7.10016 6.21 6.41016 7.065 6.41016H10.92C11.775 6.41766 12.465 7.10766 12.465 7.95516Z" stroke="white" stroke-width="1.5" stroke-linecap="round" stroke-linejoin="round"/>
<path d="M6.69044 2.56213V6.41715H11.318V2.56213H6.69044Z" stroke="white" stroke-width="1.5" stroke-linecap="round" stroke-linejoin="round"/>
<path d="M9 14.6899C8.37 14.6899 7.86 14.1799 7.86 13.5499C7.86 12.9199 8.37 12.4099 9 12.4099C9.63 12.4099 10.14 12.9199 10.14 13.5499C10.14 14.1799 9.63 14.6899 9 14.6899ZM9.015 13.5499L9 13.5649C9.0075 13.5649 9.015 13.5574 9.015 13.5499Z" fill="white"/>
</svg>
